<svg xmlns="http://www.w3.org/2000/svg" viewBox="0 0 553.1746 421.9483"><defs><style>.cls-1{fill:#bb282e;}.cls-2{fill:#eeeef1;}</style></defs><g id="katman_2" data-name="katman 2"><g id="katman_1-2" data-name="katman 1"><path d="M101.5273,9.8772,101.32,9.37l.2077-.5008.5071-.214.5071.214.2135.5068-.2135.5071-.5071.2075Zm8.9915.2138.5069-.2075.2079-.5071-.2079-.5068-.5069-.214-.5069.2076-.2137.5072.2137.5131Zm1.4784,4.905a45.0085,45.0085,0,0,0-.0612-4.5384,9.4933,9.4933,0,0,0-.9223,1.4964C110.7877,13.078,111.5268,14.0433,111.9972,14.996Zm-7.8861.666c2.1563.513,4.6484.6779,6.5484-.678a46.2791,46.2791,0,0,0-5.0212-.6721,5.7444,5.7444,0,0,1-3.2495-.3054C102.9566,14.5624,103.4942,15.1549,104.1111,15.662Zm2.987,3.2558c-.5376,1.3314-1.1362,2.773-.6535,4.2209a8.7846,8.7846,0,0,0,3.5306,1.4355,5.8507,5.8507,0,0,0-2.376-1.2647C107.4218,21.8435,107.2753,20.3777,107.0981,18.9178Zm.1528,7.1528h-.8184c-.0062,1.0751-.0184,2.1561-.0307,3.2314.22,0,.6658.0059.8856.0059C107.2631,28.2267,107.2509,27.1518,107.2509,26.0706Zm3.6588,3.3413c.7271-.88-.8063-1.93-1.4169-1.0139C108.778,29.2774,110.2929,30.3282,110.91,29.4119Zm-.8978,1.2705c-1.008.2564-.4887,1.8753.4824,1.4659C111.4963,31.8918,110.9769,30.2792,110.0119,30.6824Zm-7.935-19.5347c-1.05.2566-.4519,1.8448.5073,1.4357C103.6285,12.3267,103.03,10.7323,102.0769,11.1477ZM99.7927,14.55c-.788-.1037-1.0935.7759-1.5944,1.2035.8736.0182,1.747.0244,2.6264.03C100.4888,15.3626,100.1468,14.9473,99.7927,14.55ZM110.0851,22.07a26.4186,26.4186,0,0,1,3.2987-2.883c-.1834-1.0323-.3849-2.0585-.58-3.0848-.8185.1283-1.6431.2382-2.4435.4459C109.572,18.2764,110.1584,20.2372,110.0851,22.07Zm-5.815-5.1677a19.2431,19.2431,0,0,0-2.9381.5254c.0976,1.0934.2075,2.1929.3175,3.2924a24.4876,24.4876,0,0,0,2.5106.03,20.4765,20.4765,0,0,0,2.1685-2.3149C105.6565,17.9221,105.1192,17.128,104.27,16.9018ZM106.8967,30.67l-.5071.208-.2137.5068.2137.5069.5071.2137.5068-.2137.2078-.5069-.2078-.5068Zm388.92,13.6584c1.5209-.0185,3.0418-.0122,4.5751.0062a26.2987,26.2987,0,0,0-1.6187-3.1764c-.7941.3787-1.6.7268-2.3945,1.0812C496.1833,42.9358,495.994,43.6321,495.817,44.3285ZM350.6148,81.9866a22.0263,22.0263,0,0,1-.0734-7.2749,16.6149,16.6149,0,0,1,2.9259-8.0937c1.9853-2.4984,3.5674-5.3265,5.9435-7.5011,2.7732-2.5472,4.8744-5.7052,7.4522-8.4418,1.5087-1.6675,3.2619-3.4451,3.3719-5.84a82.1191,82.1191,0,0,0-.6171-12.3083,2.46,2.46,0,0,1,1.8813-2.8038c1.9242.4767,3.763,1.234,5.6444,1.8508a5.4309,5.4309,0,0,1,2.6876,2.358A22.3777,22.3777,0,0,1,383.52,41.69c1.2462-.5192,2.4861-1.0568,3.7323-1.6a14.5222,14.5222,0,0,1,4.9173-9.0221c-.4459-2.7974-2.7306-4.8378-3.1032-7.6478-.8306-4.2818-1.6492-8.7471-.6962-13.0778.2932-1.4784,1.6065-2.37,2.7059-3.25,1.5638-1.1607,3.146-2.4619,5.131-2.7916a30.9923,30.9923,0,0,1,11.7161-.3177c1.5208.232,2.3882,1.6676,3.1639,2.8526,1.5759,2.3639,1.3562,5.3446,1.3012,8.0507-.3114,3.2069-.6963,6.4017-1.0322,9.5964-.0553.3177-.1589.9468-.214,1.2644-.1464.1282-.4459.3909-.5926.5254-.9832,2.4311-1.8018,4.9232-2.712,7.3849,1.4661.7086,2.9442,1.3989,4.3614,2.2235a24.3794,24.3794,0,0,1,4.685,7.8005,20.1068,20.1068,0,0,1-.5433,2.4922c1.136.678,2.2782,1.35,3.4021,2.0584a12.4777,12.4777,0,0,1,3.9461,3.4147,43.4689,43.4689,0,0,1,2.4126,5.082l-.1647.3239c.1527.5314.3238,1.0628.5069,1.5882,1.4294,4.5935,1.6006,9.45,2.199,14.1959.5011,3.8361,2.1259,7.3912,3.0054,11.1415.7206,2.7366.6474,5.6138,1.4049,8.35.7087,2.871,1.7594,5.6443,2.7061,8.4478,1.1788,3.4207.3419,7.0981.9286,10.61.4641,3.0175.4764,6.0778.7267,9.1135.4033,1.2157,1.1423,2.5047.5192,3.7811-.69,1.7654-.69,3.7018-1.2584,5.4917a12.3968,12.3968,0,0,1-6.67,1.8995,17.6243,17.6243,0,0,1-4.19-2.51c.7575,3.6834,2.2417,7.1772,2.7916,10.9033.1222.8185.2381,1.6371.3481,2.4619.11.9895.1955,1.979.2809,2.9745.165,2.1075.275,4.215.4705,6.3162a99.1712,99.1712,0,0,1,.7268,11.5019,34.8775,34.8775,0,0,0,1.973,10.2254c.3054,1.5212.6293,3.0423.9468,4.5632.1467.7327.2871,1.4661.4459,2.1989a84.3661,84.3661,0,0,1,1.9487,12.29,121.0634,121.0634,0,0,0,2.1366,12.93,7.4878,7.4878,0,0,0,.5376,3.3084c.0189.5674.0353,1.1348.0561,1.7025a41.6722,41.6722,0,0,0,2.0343,7.6046,23.0453,23.0453,0,0,1,1.814,5.0577c.2262,2.3761-.6963,4.82.0915,7.147.8432,2.5166,3.0727,4.2147,4.16,6.5908.513,2.193.2809,4.4836.3359,6.7254-3.7506.4094-7.5927.8065-11.3188.006a4.9883,4.9883,0,0,1-3.0786-1.7956,15.7087,15.7087,0,0,1,.2871-3.781c-1.3926-.4279-3.8055-.0795-4.0987-1.9671a73.4244,73.4244,0,0,1-.5621-7.5929c-1.5454-.0242-3.0786-.0242-4.6116-.0487-.4154-2.2844-.8553-4.5691-1.3685-6.8293-.7145-3.1212-1.9792-6.084-2.7425-9.193-.2444-.9284-.47-1.8568-.7208-2.7792a92.921,92.921,0,0,1-3.4879-12.7422c-.226-.8858-.446-1.7653-.66-2.6448-1.0688-4.1414-1.46-8.4114-2.315-12.5956-1.2279-6.75-1.863-13.6216-3.8238-20.2186-1.3257-4.2027-2.0525-8.5886-3.836-12.6383-.8553-2.4374-1.9488-4.7768-2.92-7.1652a42.3711,42.3711,0,0,0-2.2356,9.3459c-.1712,1.191-.2994,2.3944-.44,3.5919-.6231,4.4344-1.4476,8.8448-1.8753,13.3039-1.3377,6.78-2.7061,13.5544-3.6406,20.402-.7086,5.1737-1.38,10.39-3.03,15.3624-.8431,2.6329-2.0525,5.1555-2.59,7.88-.4826,2.242-.5926,4.6546-1.973,6.5912.4092,1.2336-.049,2.5226-.2686,3.7505a34.8437,34.8437,0,0,1-1.9121,6.2122,20.9944,20.9944,0,0,1-3.9278.6841c-.0612,3.5672.3422,7.11.5926,10.6651a15.91,15.91,0,0,1-5.9375,1.4476c-2.3272.055-4.8378.1225-6.9208-1.0627-.9772-.9345-1.0749-2.3824-1.3314-3.6224-.6293-2.9989.7818-5.864,1.6369-8.6615.0795-2.089-.0243-4.1783-.0366-6.2673-.0549-2.9075,1.3927-5.595,1.35-8.5028,0-3.2619-.3115-6.5237-.1712-9.7856.3971-9.3274.5071-18.7344,2.4861-27.9031-.018-2.2967-.0975-4.5873-.0547-6.8843.0367-2.0582.0609-4.117.1159-6.1693.2442-4.2392,1.0627-8.4173,1.1972-12.6688.061-5.3447-.1892-10.69-.055-16.0342.1223-4.4777-.0182-8.98.7149-13.4142a76.116,76.116,0,0,1,1.7713-7.8c.8248-3.103,1.3926-6.2856,2.4433-9.3274a13.1869,13.1869,0,0,0,.8858-3.6591c-.1222-1.4538-.5863-2.8465-.8307-4.2819-.6477-3.3412-.0795-6.7741-.6292-10.1278-.55-3.2984-1.13-6.5908-1.631-9.8955-1.8936,1.4477-4.0865,2.5229-5.7663,4.2332-2.0953,2.3334-3.7566,5.21-6.5727,6.7743a13.5209,13.5209,0,0,1-6.9207.5741A6.2953,6.2953,0,0,1,350.6148,81.9866Zm69.6965,23.2425c.4949,3.8116,2.1807,7.2995,3.1152,10.9951.8735,2.9015,1.13,6.0044,2.5474,8.7226-.1955-1.8628-.4277-3.7261-.5866-5.5952-.226-2.9382-1.5759-5.6136-2.4-8.4052A17.15,17.15,0,0,0,420.3113,105.2291ZM378.2979,49.1908c3.3534,5.76,7.4522,11.0377,11.2515,16.5049a50.8752,50.8752,0,0,0,8.4907,9.2234,29.9621,29.9621,0,0,0,9.3824,5.26,14.36,14.36,0,0,0,4.4594.8245c-1.0385-2.5656-2.9383-4.6-4.7037-6.67C399.8543,65.14,392.72,55.7939,385.39,46.6069a43.98,43.98,0,0,1-2.8221-3.9887A19.5975,19.5975,0,0,1,378.2979,49.1908Zm-118.6,73.63c-2.5166-.3054-5.027-.6477-7.5012-1.173,1.9671-3.3289,2.4252-7.3424,4.6486-10.5308.9468-1.5027,2.6449-2.1928,3.9461-3.323-1.1728-7.3485.2077-14.7516.2994-22.1245.0792-3.25.5006-6.481.4764-9.7306-.0245-6.5177-.22-13.0353-.055-19.5529.0977-3.7261-.2015-7.4644.22-11.1785a34.2411,34.2411,0,0,1,.7024,8.7228c-.1038,12.235.4153,24.4947-.6352,36.6992,0,5.3082-1.4478,10.6653-.11,15.9185,1.8813-3.769,2.9013-7.9045,4.4529-11.8138,1.49-4.2024,4.1169-7.8858,5.5159-12.119-1.4844-.8245-3.433-1.4476-4.0315-3.2007a7.7445,7.7445,0,0,1,1.0935-5.3144c1.6428-1.3437,3.616-2.321,4.85-4.117a27.5347,27.5347,0,0,1-4.0985-5.1615,8.5414,8.5414,0,0,1-.4094-7.5256,37.3173,37.3173,0,0,1,3.9765-5.131c2.877-3.4206,6.6949-6.762,11.4717-6.5541.22-2.0463.3114-4.099.36-6.1572a11.0054,11.0054,0,0,1,5.6318-2.8343c-3.5489-2.419-4.8073-6.8233-5.5344-10.8243-.4946-2.2234,1.4417-3.8056,2.7916-5.241a20.7977,20.7977,0,0,0,3.4209.4459c1.8751-1.2094,3.1825-3.0723,4.5811-4.7644,1.02-.0916,2.04-.1893,3.0665-.2994.3482-1.2154.116-3.0357,1.57-3.5428,2.0585-.8673,4.2637-2.4129,6.5787-1.5881,1.4906.3909,3.0482.47,4.5263.9285a24.0779,24.0779,0,0,0,2.3945,2.4677c1.0507.4766,2.1929.6963,3.2619,1.1484a15.198,15.198,0,0,1,2.4984,2.2784c3.9887.7576,8.1485,2.5656,10.4941,5.9985a27.1391,27.1391,0,0,1-.3481,8.8021c-.1587.9835-1.0932,1.4964-1.79,2.0707a47.4667,47.4667,0,0,0-4.4164,3.5552c1.49,2.3822,2.5534,5.07,4.4226,7.1955,1.8813.837,4.074,1.0079,5.73,2.3334a41.1782,41.1782,0,0,1,8.2952,8.784,7.9737,7.9737,0,0,1,1.0445,6.5907c-.9223,2.6083-2.9871,4.5691-4.3065,6.9514.2932,2.6694,4.0133,2.7121,4.7952,5.1433a7.8092,7.8092,0,0,1,.4458,4.4592c-.7023,1.79-2.6571,2.5043-4.1964,3.3963,1.973,3.9091,4.2331,7.6659,6.17,11.5937,1.9241,4.3978,3.1335,9.138,5.6806,13.2489,1.1362,1.3623,3.1153,1.7591,4.0988,3.2925,2.2784,2.8648,2.9565,6.5541,4.85,9.6329a24.4163,24.4163,0,0,1-7.66,1.35c-.0855,3.225.1771,6.5419-.88,9.6509-.8552,2.755-1.8328,5.9375-4.6,7.3486a8.3791,8.3791,0,0,1-5.4911-2.3151c-.0308.623-.0612,1.24-.0858,1.869-3.2372.1772-6.4626.5194-9.6633.9958-.4765,4.6973.5558,9.3459.965,14.0065.0122.2932.0244.8857.0367,1.1849.0306,1.46.0306,2.92.0306,4.3859.7208,2.5594.574,5.2533.7147,7.8861.0368,1.57.061,3.1457-.0427,4.7156-.8493,5.4851-2.4557,10.8483-2.9993,16.3887,1.8446.959,3.9888,1.7958,5.07,3.7018,1.1179,2.1195,1.2889,4.5688,1.6921,6.89a59.6338,59.6338,0,0,1,.8673,7.2812,8.479,8.479,0,0,1-6.9818,4.38,48.8873,48.8873,0,0,1-6.5541-.0427c-.208.5985-.4279,1.1974-.6538,1.79-1.3622,3.4634-3.0418,6.8718-3.5794,10.5858-.336,2.6694,1.0567,5.1065,2.1866,7.4095,1.283-.5194,2.5534-1.0691,3.8668-1.5089a10.2137,10.2137,0,0,1,4.9723,2.37c-.0612,1.0749-.1284,2.15-.2567,3.2251-.03.2505-.0917.7573-.1222,1.008-1.747.8368-2.7243,2.62-4.2942,3.6589a14.4266,14.4266,0,0,1-10.83-1.6554,44.6166,44.6166,0,0,0-6.9392-3.0357c.0612-8.5091,4.6545-16.4012,3.9035-24.9588-2.1442-2.4006-4.893-4.1538-7.3364-6.2184-1.9058,1.5331-3.8666,2.999-5.7541,4.5506-.8124.7208-1.869,1.4906-1.7346,2.7245-.1285,6.0288,1.9728,11.7707,3.329,17.5737a22.3668,22.3668,0,0,1,.4826,6.8108c-.5254.1037-1.5881.3176-2.1135.4217a4.5076,4.5076,0,0,1-.0772.6369c-.2051.0494-.41.1069-.6157.1705.033-.0643.0679-.1267.1-.1907a29.2686,29.2686,0,0,0-6.06,1.9241,17.6788,17.6788,0,0,1-8.9548,1.5761c-1.857-.055-2.987-1.6981-4.2269-2.84l-.5621-.067a9.0444,9.0444,0,0,1-1.356-4.5816,11.9078,11.9078,0,0,1,2.5777-3.2922c2.4981-.1649,4.7278,1.0445,6.7862,2.3089a17.9158,17.9158,0,0,0,2.9626-5.3019,10.4371,10.4371,0,0,0-.4519-5.6016c-.9468-3.1458-2.2234-6.1877-3.4756-9.2237a34.05,34.05,0,0,1-10.8546-1.2215c-.7148-.47-1.3989-.9713-2.0707-1.4966a5.2605,5.2605,0,0,1-.8063-3.39c.3114-2.9015.94-5.754,1.5086-8.6066.4337-1.7778.8186-3.6893,2.0648-5.1067a16.8282,16.8282,0,0,1,4.4713-2.6509,116.1185,116.1185,0,0,0-2.7428-16.3644c-.006-1.6187.0307-3.2375.1222-4.85.5254-6.7253.4581-13.4934,1.179-20.2065.3664-3.7263,1.069-7.4646.7086-11.2272-2.59.4337-4.1173,2.7365-6.3407,3.8484a10.03,10.03,0,0,1-5.9737-3.0176c.3358-2.034,1.3253-3.8788,1.9667-5.8276a27.9338,27.9338,0,0,0,1.2584-6.878c-1.8385.2995-3.6713.5681-5.51.8063a21.386,21.386,0,0,1,1.8935,7.66c-.4459-.0488-1.3379-.14-1.79-.1892a10.9633,10.9633,0,0,0-1.9545-3.5979,11.2,11.2,0,0,0-.2625,4.3859c.971,2.73,3.5731,4.5751,4.1535,7.4949-1.4172-.1037-2.9565.1345-4.2635-.5071-1.93-1.6428-2.7-4.1963-3.2986-6.5664A35.4589,35.4589,0,0,1,259.6976,122.8213Zm82.4938.58c.916,3.58,2.1622,7.0612,3.2067,10.6041a8.613,8.613,0,0,0,3.9278-5.4669c-1.2339,1.1239-2.4617,2.254-3.7934,3.2619-.4153-2.7121.5987-5.2961,1.3317-7.8493C345.3,123.7923,343.7427,123.6031,342.1914,123.4014ZM325.5093,93.5375a7.4531,7.4531,0,0,0,2.5533,1.9426,26.8143,26.8143,0,0,1,10.91,11.0927c1.9058,3.3842,1.1057,7.4279,2.2234,11.044,1.1913-2.1747,1.356-4.7156,2.4189-6.9513-1.1667-2.15-2.4678-4.2269-3.824-6.2612-2.5776-3.8542-4.5811-8.0508-6.8778-12.07a32.1026,32.1026,0,0,1-2.7488-6.4075c-1.5637-.0429-3.1275-.0732-4.6852-.1162A31.7467,31.7467,0,0,0,325.5093,93.5375ZM293.477,174.8706c.14,4.1659.2322,8.3379.5436,12.4976,2.0157.6721,4.337,1.1485,5.7113,2.9261,2.5961,3.4938,3.4146,7.9835,6.145,11.4224,2.3883-3.3349,3.6591-7.2809,5.809-10.7383,1.5577-2.5776,4.7342-3.1092,7.312-4.1538-1.3561-4.9295.4091-9.9992-.1957-14.99-.4886-4.0377-2.0707-7.8249-2.9808-11.7649l-.1161-.4888c-.1528-.6168-.2993-1.2337-.44-1.8446-.8064-3.5366-1.9486-6.9818-2.7976-10.5a30.558,30.558,0,0,0-1.3072-4.3551c-.5193-1.3867-2.1015-1.8753-3.4209-2.089a25.9713,25.9713,0,0,0-6.4626.7573c-2.1377,6.4443-3.3779,13.1393-5.1493,19.6873C295.1567,165.7569,293.3243,170.1793,293.477,174.8706Zm-24.5067-64.7a18.9754,18.9754,0,0,1,2.2232,6.0536,22.6926,22.6926,0,0,1-.3237,4.9355c.2442-.1222.7268-.36.9651-.4826a86.2978,86.2978,0,0,0,1.7715-9.3152c.2259-2.2238,1.46-4.1353,2.6083-5.9863a42.2289,42.2289,0,0,1,8.4724-9.8038c.8061-.8,1.93-1.5089,2.1013-2.7306a22.1374,22.1374,0,0,0-.3117-7.0917c-1.7223.0487-3.4329.0855-5.1493.1467-1.24,4.8865-3.781,9.2784-5.9925,13.7618A71.2972,71.2972,0,0,1,268.97,110.1706ZM152.4652,44.3347c2.04,1.6247,3.5488,3.7871,5.4486,5.5584,1.7713,1.6676,3.6222,3.256,5.3082,5.015-1.6921-.69-3.36-1.4415-5.0577-2.1135-2.6817-1.0812-5.5587-1.6431-8.124-3.0053a25.9666,25.9666,0,0,0-6.7866-2.7,17.9249,17.9249,0,0,0,5.9067,3.6834c2.5594,1.1484,4.63,3.097,7.0676,4.4591,1.7651.9955,3.5243,2.0157,5.2042,3.158a40.6206,40.6206,0,0,0-14.5806-.3422,26.6847,26.6847,0,0,0,5.1309,1.0752,54.6888,54.6888,0,0,1,6.5239,1.6249,15.0052,15.0052,0,0,1,5.015,1.8995,21.5746,21.5746,0,0,1,4.4834,4.5571c1.6371,2.0645,3.952,3.5364,5.3022,5.8394,1.4354,2.4923,2.5409,5.1617,4.0743,7.5991,1.4413,2.3517,4.1351,3.4816,5.8213,5.6255a11.0049,11.0049,0,0,0,4.6606,3.7139c.049,4.1049-.5071,8.1792-.5987,12.278a57.0322,57.0322,0,0,1-1.1424,7.3912,66.4207,66.4207,0,0,0-.0733,10.9095c.2018,4.6728-.9342,9.34-.1831,13.9943.8675,5.2469,1.2339,10.5551,1.9852,15.8205.6108,3.9216.1712,7.9593,1.1607,11.8321,1.2035,4.7583.6228,9.7.7208,14.55-.049,4.2637.9955,8.4847.5434,12.7544-.3054,3.2131-.4091,6.4446-.4886,9.67-.0855,6.243,1.0692,12.4,1.2523,18.6184l-.1588.5192c-1.0263,2.7183-1.68,5.6075-3.0908,8.1609-1.7958,2.7548-5.8885,2.0035-7.9777,4.3247-1.02,2.5289-.2747,5.32,0,7.9288a69.3246,69.3246,0,0,0,13.6463-.4094,44.7954,44.7954,0,0,1,8.063-1.0322c2.138-.1223,4.4284,0,6.3832-1.0385,1.02-3.8056.25-7.7761.1222-11.6365a39.55,39.55,0,0,1,.2872-11.7035c.012-.2566.0427-.77.0549-1.0263q.2014-3.6282.0916-7.2569c-.1772-5.6623-1.0751-11.2882-.88-16.9628.0305-3.6712.1467-7.3422-.0857-11.0073-.1954-3.47-1.3987-6.8048-1.3437-10.2927.0245-5.43,1.4417-10.72,1.9913-16.0954a19.6276,19.6276,0,0,1,3.1153,8.8327c.8,5.0453,3.5183,9.4434,5.3265,14.1408,1.1,2.8892,2.6327,5.5769,3.9829,8.3561.2013.6476.3846,1.3073.5436,1.9731.0364.2322.116.6963.1587.9222a41.44,41.44,0,0,0,1.7408,7.9838c1.4844,4.5874,1.3195,9.4556,1.5821,14.2143.0978,3.0359,1.5149,5.7722,2.4494,8.6005,1.1362,3.47.6353,7.22,1.6739,10.7081a39.364,39.364,0,0,1,1.6185,5.6806,17.7538,17.7538,0,0,1-1.6308,3.9461,20.5606,20.5606,0,0,0-1.3682,6.3956,45.0989,45.0989,0,0,0,10.427.1647c1.8385-.2321,3.9029-.0795,5.4913-1.1789,1.8876-1.6554,1.8141-4.4042,2.3089-6.6764.7331-5.3509,2.9381-10.5859,2.15-16.065-.47-4.38-3.3535-8.0325-3.9643-12.3757-.3912-2.48-.4584-5.0027-1.0935-7.44a111.0087,111.0087,0,0,0-4.93-13.9578c-1.35-3.2189-1.7163-6.829-3.6039-9.822-.9772-1.6861-2.2662-3.3047-2.4493-5.3144-.336-2.8159-.1527-5.6929-.8676-8.46-.4092-1.875-1.2584-3.6526-1.4476-5.5706.061-2.303.91-4.5019,1.1057-6.7926a54.6141,54.6141,0,0,0-.7881-16.7431c-1.8388-5.0577-2.12-10.5-3.8115-15.6009.5374-.4823,1.0872-.9588,1.5881-1.4841-.44-1.9363-1.9363-3.4819-2.199-5.4854a44.1145,44.1145,0,0,1,.3542-14.8006c1.1117-4.7889-.88-9.6206.104-14.4342.904,4.7768,2.8647,9.3275,3.0235,14.2388a74.7032,74.7032,0,0,1,.5741,22.259c-.4581,4.6178.1407,9.2419.3481,13.8537,2.138,2.4737,5.2837,4.8743,8.7533,3.9093a22.7206,22.7206,0,0,0,1.6739-2.2784c-1.13-1.0568-2.2357-2.12-3.3047-3.2314,1.5209.5743,3.0238,1.1851,4.5384,1.7715-1.246-2.7915-2.6816-5.6808-2.51-8.8266.4277-7.7333,1.3562-15.4236,2.1258-23.1265a104.8915,104.8915,0,0,0-.3909-18.9848c-.2933-3.775-2.01-7.1955-3.2435-10.7078a219.0242,219.0242,0,0,0-10.03-24.2075c-1.1547-2.1625-1.8693-4.9051-4.172-6.1572-3.7263-1.8448-7.9288-2.3334-12.0275-2.6084-.1955-.7878-.3849-1.5759-.5741-2.3639-1.5944-.2445-3.2987-.1955-4.7709-.91-1.5086-1.7043-2.1134-3.989-2.773-6.1145,1.4659-.8368,3.2742-1.4966,4.08-3.091a16.5019,16.5019,0,0,0,.4521-3.8788,24.5563,24.5563,0,0,0-.7267-7.9775c-.7027-.4521-1.3989-.91-2.1136-1.3439a16.4344,16.4344,0,0,0-6.5788-.7941,72.3116,72.3116,0,0,0-3.8055-6.2549A10.0168,10.0168,0,0,0,189.3842,0a33.8689,33.8689,0,0,0-4.5081.5988,29.5843,29.5843,0,0,0-5.3447,2.6021c.2137,2.0523.5681,4.19-.1162,6.2a49.2562,49.2562,0,0,0-2.2419,8.4782,25.2426,25.2426,0,0,0-6.7619,2.01c1.5212,1.7345,3.6651,2.718,5.6749,3.7685.1465.0735.4457.22.5984.2934.6965.33,1.4051.6536,2.1014,1.0078,2.2967,1.2339,3.323,3.7323,4.3369,5.98.2078.269.623.8065.8309,1.0752,1.6185,2.2172,4.1537,3.4391,6.09,5.3264,2.4982,2.8893,3.3108,6.8661,3.25,10.5982.0183,2.15-1.9609,3.4819-3.0847,5.0942-2.3152,2.5414-2.2052,6.1575-2.5779,9.352a55.6176,55.6176,0,0,0,.0368,9.4621,27.4916,27.4916,0,0,1-5.3939-2.9443c-1.4292-1.4846-2.1562-3.4818-3.4571-5.0639-1.2827-1.8326-3.0849-3.4574-3.6284-5.6869-.2017-3.4391,1.2155-6.7193,1.4354-10.1278-2.4127.8859-3.8238,3.0543-5.1737,5.0883a31.6139,31.6139,0,0,1-4.3859-6.261c-1.9731-3.6223-4.6667-6.7683-6.9819-10.1644-2.1624-3.0725-4.2146-6.371-7.4155-8.4844a30.8409,30.8409,0,0,0,4.4836,6.7986c.66.849,1.3194,1.7043,1.93,2.5961,1.7468,2.4676,2.138,5.5646,3.5976,8.179,1.1608,2.1014,2.4007,4.1659,3.36,6.3711a60.17,60.17,0,0,1-5.9742-4.3981,73.8941,73.8941,0,0,0-6.4258-4.0681c-1.295-.8612-2.5229-1.8142-3.7566-2.7548a22.4284,22.4284,0,0,0-7.0552-4.0989C145.5381,39.9365,149.35,41.7019,152.4652,44.3347ZM495.4564,46.68c-1.3621,5.3021-.116,10.8058.99,16.0407.4522-.0735,1.3622-.2077,1.82-.2749.5986-3.1155,1.6127-6.133,2.2052-9.248a16.1341,16.1341,0,0,0-.3542-6.53A43.9078,43.9078,0,0,0,495.4564,46.68ZM14.8983,197.4837c-.4946-2.4982-2.0034-4.691-2.3333-7.2262.452-1.6673,1.71-2.9565,2.4985-4.4651,1.1666-2.01,1.0442-4.4714,2.0889-6.5237a14.5782,14.5782,0,0,1,2.7489-1.5393c-.098,3.1395-.44,6.261-.6356,9.4007-.128,2.9015-1.7466,5.4181-2.5958,8.13-1.7471,4.6-1.8876,9.6026-1.6921,14.4647a35.1,35.1,0,0,0,1.5391,8.4723c.935,3.1518.9715,6.4994,2.0954,9.6025,1.3132,3.2007.2809,6.6763.0977,9.9872-.7755.1527-1.5515.2991-2.3334.4334l.4824.0428a34.4849,34.4849,0,0,0,13.17.1407c.1647-3.1825-.6475-6.3832-.0125-9.5354.55-3.3349.3422-6.7434.9591-10.0725.3788-1.9913-.287-4.1537.7085-6.0108,1.4354-2.73,2.7246-5.6929,5.2167-7.6536.9955,3.9948,1.2035,8.1422,2.3517,12.1066,1.3074.5253,2.7791.8307,3.8545,1.79.6046,2.773.7021,5.6378,1.3559,8.4112.5377,1.7835-.3544,3.5-.88,5.1674a20.7839,20.7839,0,0,0-.8735,5.7543,46.5531,46.5531,0,0,0,11.5877-.0185,24.6127,24.6127,0,0,0,.33-6.829c.012-2.8953,1.1178-5.6991.8-8.6067-.2632-4.618-2.1447-9.0955-1.5336-13.7682a24.5071,24.5071,0,0,0,.208-3.72c-.3974-1.869-1.5394-3.5123-1.7166-5.43a29.2844,29.2844,0,0,1,.2322-5.7113,93.1747,93.1747,0,0,1,5.1674,8.8878c1.02,1.7531.1469,3.7934-.0914,5.6381,1.2826.4581,2.5533.9285,3.83,1.4049,1.3929-1.9243,3.0482-3.8056,3.6283-6.1635.2262-2.6633-1.5208-5.0392-1.49-7.6965a68.2575,68.2575,0,0,0,.1711-6.89c-.1957-3.3415-1.6493-6.4077-3.0052-9.4009-2.04-4.3859-3.8483-8.8816-6.188-13.1208-.49-.8393-.9569-1.714-1.4917-2.5363a9.651,9.651,0,0,0-1.9167-2.24,12.0156,12.0156,0,0,0-1.4923-.94c-1.257-.6823-2.6108-1.2-3.9135-1.7843a14.465,14.465,0,0,1,3.824-6.994c.0554.1379.1057.2779.16.4166q.1672-.3273.3548-.6477c-.0219-.0565-.0411-.1155-.0635-.1721a33.415,33.415,0,0,1,3.3779-5.8763c.7271-1.1484,2.028-2.1685,1.93-3.6529-.14-3.1456-2.1559-5.7357-3.28-8.57-.4458-1.1055-.831-2.2355-1.27-3.335-.2322-.5376-.47-1.069-.7208-1.5944a23.2732,23.2732,0,0,0-6.0655-8.1241c-2.4072-2.1073-5.29-4.19-8.6681-3.9521-4.3247.2075-9.2357.0915-12.7113,3.109a33.7039,33.7039,0,0,0-6.426,6.988,37.5279,37.5279,0,0,0-3.5981,8.1547,22.5186,22.5186,0,0,0,0,6.1145c.5561,2.2418,1.338,4.4164,2.0035,6.6277,1.8875,2.755,4.276,5.1187,6.3647,7.7208.9043.9775.9472,2.3581,1.1365,3.6041-1.3012.4521-2.6082.8978-3.8851,1.4357a15.5047,15.5047,0,0,0-3.8788,3.3715,34.7891,34.7891,0,0,1-6.5481,7.55,20.5406,20.5406,0,0,1-3.6161-6.1082c-.9162-2.3517-1.6-4.7953-2.62-7.11-.5315-.6291-1.0937-1.228-1.625-1.8508.2016,2.889.0184,5.7906.1589,8.6861.171.7573.3724,1.5149.5924,2.2662.0675.2322.2079.6963.2749.9285,1.0627,3.7321,2.5044,7.5621,1.9305,11.5019l-.08.5562c-.1039.6228-.1955,1.2581-.2807,1.8872.128,2.187.6471,4.3492.4824,6.5421-.1163,2.2235-.6049,4.4836-.11,6.6946a4.02,4.02,0,0,0,2.37,3.1277A23.1113,23.1113,0,0,0,12.04,200.312,4.7132,4.7132,0,0,0,14.8983,197.4837Zm510.4709,66.6118a68.5126,68.5126,0,0,1,12.3877,4.105c-.971,1.8568-1.9241,3.726-3.0418,5.4976-.5133.7269-1.0507,1.4294-1.5942,2.1257-.2322.2932-.6967.8673-.9286,1.1545-1.295,1.5943-2.5839,3.1945-3.9583,4.7218a85.9229,85.9229,0,0,1-9.016,8.3682c-.3849.3179-.7575.6414-1.1238.9713a40.7688,40.7688,0,0,0-7.66-.5314c-.4276-.0245-1.2827-.0672-1.71-.0915-.22-.2262-.6719-.6718-.8919-.898a53.0555,53.0555,0,0,1-6.97-.3911c-1.24-.2015-2.4737-.452-3.7076-.6414a56.4779,56.4779,0,0,0-8.7411-.2992c-1.3072-.0122-2.6084-.067-3.9032-.1342-3.4452-.5744-6.988-1.3562-10.4637-.5681a4.1553,4.1553,0,0,0-3.2557,2.6021c-.6171,2.309-.6475,4.7338-1.1607,7.0735-.0915.2077-.2872.6231-.3849.8246a21.0737,21.0737,0,0,1-7.5071.892c-4.52-.1653-9.0588-.22-13.5544-.7394-5.1005.3239-8.851-3.6161-13.2674-5.4181a22.3983,22.3983,0,0,0-11.1968-1.7713,15.6352,15.6352,0,0,0-.0183,3.7017c.5192,1.637,2.0829,2.62,3.5552,3.3168a42.235,42.235,0,0,0,11.8013,2.932,58.3585,58.3585,0,0,1,9.932,2.3334l.0857.5254c-.1955,1.1667.0733,2.7489-1.1362,3.4329-1.8813,1.0382-4.08.3359-5.9923-.2259a27.7366,27.7366,0,0,0-6.0534-1.3135c.9162,2.6144,2.4494,5.009,2.8772,7.7881-4.0562,1.0508-8.2527.4767-12.3636.9285-5.8456.8309-10.329,4.9356-14.9226,8.2647-1.5944,1.0751-3.2557,2.04-4.8868,3.048.2262.1285.69.3787.9223.5009-3.4449.1528-6.86.5559-10.2862.898-6.188.5986-12.4125.6842-18.6062,1.2584-4.4348.3542-8.8755.7024-13.3041,1.1055-4.7524.4277-9.523.342-14.2815.47,4.0989-.2811,8.1792-.8917,12.3024-.8063a29.3184,29.3184,0,0,0,8.0508-.8123c-.898-1.3561-1.7043-2.9505-3.2925-3.5918-4.0864-1.918-8.7533-1.6126-12.9865-2.9993-4.1415-1.35-7.953-3.6406-12.2472-4.5324-4.4528-.8063-9.126.0733-13.4689-1.4356a3.804,3.804,0,0,1-2.7548-3.3962c.4214-2.8282,2.144-5.2959,2.4249-8.1547a5.46,5.46,0,0,0-1.3989-4.5019,7.2974,7.2974,0,0,0-4.2024.2078c-1.7654,1.2889-2.6082,3.4328-3.5062,5.3509q.229,1.3286.5131,2.6573c-1.2522,1.5759-2.4921,3.3534-4.4409,4.117a18.7479,18.7479,0,0,1-9.4006.7635,12.2183,12.2183,0,0,1-7.7272-4.3491c-1.3131-1.5882-1.3988-3.7446-1.7777-5.6749-.44-3.3717-2.2232-6.45-2.1072-9.9076l.6048-.1406c1.2216-2.9136,2.0645-6.2672.904-9.3395-.6353-1.973-2.8773-3.6956-4.954-2.7243a17.04,17.04,0,0,0-7.44,6.7434,67.5553,67.5553,0,0,0-5.5768,12.2046c-.0795.2137-.2322.6351-.3056.8491a27.5021,27.5021,0,0,1-6.5787,10.5613l-.287.275a26.0987,26.0987,0,0,1-3.5123,2.6144c-.22.1037-.66.3052-.88.4091h0c-3.8053,1.5516-7.5985,3.17-11.2637,5.0457l-.11-.4461a35.036,35.036,0,0,1-5.2409,3.2009c.0122.2383.0305.7084.0365.9468a8.1836,8.1836,0,0,0-1.9668,5.5524c1.2035.2262,2.4129.4643,3.6344.6658a20.5514,20.5514,0,0,0,5.87-.0487c.77.25,1.5395.5131,2.3213.7513-5.2105.0977-10.6164.2872-15.5337-1.7348-2.8281-1.1-4.8438-3.4757-6.6826-5.7846-.7513-.9774-1.4841-1.9608-2.23-2.9383-.0366-.6535-.0795-1.3071-.116-1.9607-3.03-4.8623-4.8072-10.3414-7.3546-15.4482-5.7051-12.6016-11.5141-25.154-17.2807-37.7311-1.1542-2.5534-2.5164-5.0151-3.5122-7.6356.1833-.33.5376-.9958.7209-1.3257,4.2026-.0487,8.4357-.4456,12.62.098,1.3012,2.2722,1.5271,4.9477,2.1439,7.4519,4.9236-.3541,9.5474-2.1438,14.3-3.31a17.166,17.166,0,0,0,4.007-1.4111,10.219,10.219,0,0,0,1.5884-2.4616,43.2277,43.2277,0,0,1,6.2182-.5009c14.0493.0975,28.0986,0,42.1478.061,2.6941.0185,5.3937-.11,8.0938-.1833q34.4328-.0913,68.8719.0183c17.9158-.0732,35.8316.0979,53.7474.2262,12.2107.2747,24.44.2872,36.6382.9955a368.8127,368.8127,0,0,1,38.9348,2.8528A197.9433,197.9433,0,0,1,525.3692,264.0955ZM272.2565,284.9863a5.49,5.49,0,0,0-5.1435-.6108,4.2358,4.2358,0,0,0-1.8873,1.3194c-.3849,1.7776-.4644,3.9948.9468,5.3631a4.0218,4.0218,0,0,0,6.3221-1.1667C273.124,288.3827,273.6429,286.2325,272.2565,284.9863Zm52.1045-9.4192a3.3741,3.3741,0,0,0-3.934-.1342,13.0757,13.0757,0,0,0-4.3124,4.2817c-1.68,2.5474-1.6676,5.7176-1.863,8.65.7328.9163,1.4781,1.8263,2.1562,2.7916a12.9091,12.9091,0,0,0,9.37-6.5727A7.8226,7.8226,0,0,0,324.361,275.5671Zm85.2974,14.3547c-1.9855-1.9789-5.0517-1.7957-7.55-1.1117a11.5142,11.5142,0,0,0-4.6241,2.0343,4.234,4.234,0,0,0-.3174,3.5183c1.698,1.6918,4.3,1.8141,6.56,1.7286,2.2477-.0672,4.7094-.8063,6.0106-2.7793C410.3425,292.3225,410.6539,290.7649,409.6584,289.9218Zm13.7681,15.6252a2.638,2.638,0,0,0-2.199-2.8158,5.0148,5.0148,0,0,0-4.4409,1.3376c-.6168,1.4722-.3054,3.1215-.3114,4.6791a18.5714,18.5714,0,0,0,3.5856-.1955A6.427,6.427,0,0,0,423.4265,305.547ZM216.89,288.9506a28.1979,28.1979,0,0,1,2.4617,6.5908c-4.282-1.4964-8.0326-4.1291-12.2413-5.7845a60.0188,60.0188,0,0,0-27.4389-4.3247c-5.7661.4764-11.5692.77-17.2256,2.0462-7.3788,1.4294-14.55,3.7019-21.8557,5.4242-9.7734,2.45-19.7972,4.6059-29.9371,4.001a35.332,35.332,0,0,0-8.0924.4484c.0014-.0965.0049-.1928.0049-.2894-.4827.0323-.9713.0543-1.4629.0714.3867-.1294.7733-.2579,1.1575-.3952-2.73-.3543-5.4671-.672-8.1975-1.0079-4.8866-.2749-9.7733-.5314-14.6661-.7391-.2994.0243-.904.0673-1.21.0915-5.84.5682-11.7953,1.8143-16.8773,4.8745l.0157.0655c-.1313-.0257-.2528-.0465-.362-.0611l-.0021-.01a125.4369,125.4369,0,0,0-12.186,5.9558l-.4341.232c-1.5145.4213-3.0416.77-4.5383,1.2276-8.2766,3.0849-17.69.0185-24.0974-5.6377a24.0036,24.0036,0,0,1-8.1487-18.1053,27.7331,27.7331,0,0,1,4.7643-15.07c1.2707-1.7043,2.6941-3.2923,4.0563-4.9233l.0026,0c.1113-.0549.2216-.1044.3332-.1651a6.0073,6.0073,0,0,0,1.4847-1.2c4.2193-2.7556,8.6387-5.3271,13.67-6.2092,1.057-.2322,2.1137-.44,3.1827-.6231.36-.055,1.087-.1527,1.4536-.2015a71.8954,71.8954,0,0,1,7.2568-.1894c.3911.0063,1.179.0122,1.57.0122a8.5085,8.5085,0,0,0,5.5279,1.5761c6.9575-.1894,13.921.0548,20.8723-.2812,4.6668-.2076,9.3336.0061,14-.0366,3.9341-.0121,7.8126-.7941,11.7344-.99,9.0708.11,18.16-.122,27.225.3544,6.97.177,13.9393-.0062,20.909.067,6.09-.0607,12.1923.1772,18.2763-.1343.2932.0124.8733.0429,1.1605.0611,3.5184.11,7.0307-.006,10.5491.0245l.5559.0245c4.4471.22,8.8938.1954,13.3469.1649a21.6165,21.6165,0,0,1,5.3632.3482c1.4231.3971,2.2967,1.6981,3.2067,2.767l.2689.3972c.5131.9713,1.05,1.93,1.5516,2.9135.226.556.4582,1.118.6963,1.68,1.1177,2.6816,2.4007,5.29,3.7321,7.88C211.2216,277.5339,213.9277,283.3125,216.89,288.9506ZM49.4964,300.526a31.2386,31.2386,0,0,1-20.1944-.2137,58.3235,58.3235,0,0,1-5.5769-2.5779c-.9592-.4764-1.9246-.9223-2.8956-1.3681,1.0813,1.4049,2.1808,2.7915,3.256,4.2024,2.1314,1.2462,4.3062,2.4252,6.4994,3.5613,3.0112.2992,6.0407.8124,9.0767.4824,3.2372-.3116,6.2245-1.6918,9.34-2.5106C49.1725,301.57,49.3437,301.0513,49.4964,300.526Zm5.3569-23.3707c-.91-3.4939-1.521-7.159-3.1945-10.3842-.2383-.061-.7028-.1894-.9349-.25-1.4354.7637-2.8828,2.0157-3.1032,3.72a9.8585,9.8585,0,0,0,.1837,3.9887,6.655,6.655,0,0,0,3.5793,3.1642A11.4656,11.4656,0,0,0,54.8533,277.1553Zm3.7749-6.86c-.3849-1.8633-2.0278-3.0665-3.4817-4.1233-.9773.0673-1.9484.1466-2.9258.2383a80.4309,80.4309,0,0,0,3.2312,10.5431c.6844-.3726,1.3622-.7393,2.04-1.1055C58.2678,274.12,59.0741,272.226,58.6282,270.2957Zm77.7047,19.6872c-5.3814-.3419-10.6653.9957-16.0345,1.0139-5.04.0795-10.0788.2322-15.1182.0855a106.4289,106.4289,0,0,0-10.72.1712,69.6348,69.6348,0,0,0,11.9478,2.2113,84.7277,84.7277,0,0,0,16.8349-.3178A86.7327,86.7327,0,0,0,136.3329,289.9829Zm-27.6894-16.7554c.0553,2.5109,2.5106,4.4836,4.9235,4.5449,2.7916.4521,6.0473-1.5516,6.1328-4.5387.0612-1.698.2627-3.775-1.1789-5.0027a6.0406,6.0406,0,0,0-9.4862,1.075A8.8668,8.8668,0,0,0,108.6435,273.2275Zm60.3326-13.6092c1.0322-.0184,2.0707-.0307,3.1152-.0427,0-.3484,0-1.0507-.006-1.4051-1.4234-.0795-2.8465-.165-4.27-.2382-11.99-.3114-23.9935-.0673-35.9843-.171-.837.006-1.6738.0305-2.5043.067-8.3015.3544-16.6149.0245-24.9224.159-4.8927.1222-9.7733-.391-14.6661-.33-5.693.0244-11.3859.0122-17.079.0672-10.14-.0123-20.31-.5864-30.4319.2627-2.364.3482-4.7156.7268-7.08,1.0322-3.9272,1.3684-7.9408,2.7-11.3612,5.1372-.1413-.022-.2825-.0433-.4238-.0653.1411.022.2823.0433.4234.0653a48.0441,48.0441,0,0,0-6.499,6.7376h0a13.8371,13.8371,0,0,0-2.37,5.6014,36.4158,36.4158,0,0,0,2.67-2.5657,27.8948,27.8948,0,0,1,8.4049-7.3176,38.6209,38.6209,0,0,1,15.3932-5.2655,55.36,55.36,0,0,1,9.8835-.9285c15.43.0612,30.8593-.0367,46.2831-.11,10.7753-.0977,21.55-.0122,32.3257-.2259.3724-.0062,1.1237-.0245,1.5024-.0368C143.9133,260.0518,156.4417,259.8686,168.9761,259.6183Zm11.0013,9.4617a5.8,5.8,0,0,0-6.1818-2.199,14.78,14.78,0,0,0-4.001,2.6571,35.9592,35.9592,0,0,0,.4031,4.6546,14.4509,14.4509,0,0,0,1.7959,3.4758,26.0874,26.0874,0,0,0,4.4041.464c2.1013-.4459,4.1905-2.089,4.4225-4.3429A6.7225,6.7225,0,0,0,179.9774,269.08Zm25.8138,4.7463c-1.1-3.0909-2.5716-6.029-3.7138-9.1015-1.4782-2.15-2.4922-4.8441-4.7523-6.2979-.6354-.33-1.2767-.6288-1.9181-.9223a104.7378,104.7378,0,0,1-13.988-.0732l.122.4458c2.4984.4277,4.9783.91,7.4766,1.3438,2.089.4216,4.2025.7638,6.2732,1.3134,2.04.3849,2.8343,2.5411,3.879,4.0742C201.3075,267.73,203.4028,270.8881,205.7912,273.8263ZM497.0752,37.9148A11.0793,11.0793,0,0,0,497.1,33.01c-1.6434,1.4966-2.9811,3.3106-4.7524,4.66a9.2507,9.2507,0,0,0-2.2052,1.8327c-.33.8734.5009,1.5453,1.1912,1.9057a26.9336,26.9336,0,0,0,3.2985.3176l-.2137-.3786C495.4444,40.34,496.6659,39.3684,497.0752,37.9148Zm3.3839-4.8685a17.0821,17.0821,0,0,0-.8245,5.8885c.0977.226.2932.6841.391.9162l.2444.4459a6.7535,6.7535,0,0,0,2.5959,2.4984,13.557,13.557,0,0,0,3.1521.3115,8.6862,8.6862,0,0,0-2.7244-5.1555A15.1958,15.1958,0,0,0,500.4591,33.0463ZM22.1245,54.31a15.0236,15.0236,0,0,1-1.246-7.0428,15.5533,15.5533,0,0,1,1.5209-4.5021c2.1442,3.7263,4.123,7.5379,6.1695,11.3129a38.5562,38.5562,0,0,0,3.4819,5.4c.0182.2444.0547.7267.0735.9652,5.1244,9.0587,10.1946,18.154,15.2829,27.2432,2.26,3.9888,4.3187,8.112,6.9638,11.8748,1.0869-.8307,2.3821-1.5454,3.005-2.8342.8492-1.6555,1.5026-3.4087,2.2481-5.1191,1.2885-2.883,1.5759-6.0717,2.4248-9.0892,1.5333-5.6626,2.3821-11.5144,4.3676-17.0482.965-2.7184,1.6368-5.5284,2.4434-8.2955,1.3254-3.0053,3.4084-5.5706,5.1552-8.3254l.0552.44c.7816-1.0263,1.57-2.0525,2.4494-2.9992,1.295-1.4172,3.097-2.5349,3.7139-4.4409.22-.69.4276-1.3865.6229-2.0768l.1284.4094c2.9685-3.4941,7.6109-4.6913,12.0213-4.8258l.4093-.1219c.4214-.324.8368-.6721,1.24-1.0263.7755-1.014,1.9181-2.0648,1.7835-3.4574-.4581-1.7654-1.57-3.2742-2.0767-5.0213a32.0773,32.0773,0,0,1-.9652-4.74,30.6224,30.6224,0,0,1,.3849-8.8023q.962-1.31,2.04-2.5348v0a26.442,26.442,0,0,1,4.8622-4.0133,4.9053,4.9053,0,0,1,2.92-1.0629A32.4856,32.4856,0,0,1,112.2536,6.53c.6048.4949,1.1913,1.014,1.7471,1.5637a30.82,30.82,0,0,1,1.0932,19.6876c-.061.3661-.1833,1.0994-.2379,1.472v0c-.0367,1.0138-.0735,2.034-.11,3.0477.8613.0858,1.7285.1772,2.6021.269a20.1768,20.1768,0,0,1,4.9966,1.0077c1.0447,1.179,1.0751,2.9565,1.8875,4.2945a24.26,24.26,0,0,0,3.9827,2.7,27.8511,27.8511,0,0,1,5.9861,5.571c2.0159,2.315,4.1537,4.6364,5.3389,7.52,1.9545,4.7035,3.4451,9.5841,5.2164,14.3544.8,2.1687,1.8021,4.27,2.4,6.5119.6234,2.3027.8738,4.7156,1.8205,6.9267.7941,1.8694,1.6187,3.7262,2.3639,5.6137,1.3441.36,2.6877.7023,4.0376,1.0507a21.5806,21.5806,0,0,1,1.4356,9.23c-.2381,3.3842,1.918,6.17,2.9688,9.2237,1.3437,4.0376,2.7181,8.161,2.7059,12.4734q-2.089.165-4.172.33c-1.6676,3.3229-3.2925,6.7741-5.8764,9.5044a10.51,10.51,0,0,1-3.9582,2.2357c.0732-3.1885.69-6.3221,1.0567-9.48-1.57.3178-3.1212.69-4.6666,1.0873a51.9173,51.9173,0,0,1-1.2342-7.1589,17.277,17.277,0,0,0-1.0444-5.192c-1.2765-3.2253-1.8813-6.7194-3.6771-9.7246a34.226,34.226,0,0,1-3.1948-7.165c-.33,3.94.0855,7.88.0124,11.82.1586,2.7975-2.8466,4.4956-2.7857,7.2627a18.0528,18.0528,0,0,0,2.6512,9.1014c.91,1.6676,1.9425,3.47,1.6005,5.4487-.2566,2.7-3.0542,4.2577-3.5185,6.8416.0364,4.5628,1.1911,9.022,1.747,13.5361.2687,2.6876.3909,5.3877.5681,8.0873.2564,4.2393-.11,8.5091.4458,12.7363.4093,3.1639,1.0631,6.2914,1.6309,9.4312.5864,3.28,1.6677,6.4993,1.7043,9.8527.0428,3.28-1.5576,6.3894-1.1054,9.6879a57.4933,57.4933,0,0,1,.5678,7.0185,69.7069,69.7069,0,0,0-.1222,8.8876c.11,3.1522.8308,6.2367,1.13,9.37a17.3288,17.3288,0,0,1-1.2827,6.9942c.6294,1.3864,1.2525,2.7791,1.7533,4.2208a50.0773,50.0773,0,0,1,.3114,10.1217c-4.7158,2.0705-10.0055,1.0322-14.8983.2747a57.3439,57.3439,0,0,0-1.5758-13.7623c-.4094-6.5234-2.8343-12.6564-3.8791-19.07-.0519.0044-.1025.0125-.1543.0166-.02-.0855-.0344-.1728-.0545-.259.1359-.0185.2692-.0494.4045-.07-.1573.0244-.3123.06-.47.0809a38.134,38.134,0,0,0-1.6-14.5625A58.7269,58.7269,0,0,1,116.725,182.64c-.14-3.4879-1.46-6.768-1.93-10.207a43.3088,43.3088,0,0,0-2.8343-10.5553c-.8248-2.0218-1.82-3.9643-2.5593-6.0168-.9408-2.6143-1.0812-5.4241-1.82-8.0937a17.5184,17.5184,0,0,0-3.1642-5.6194c-.0915,4.8254-.4214,9.6389-.6656,14.4645a20.2579,20.2579,0,0,1-1.6189,6.1267c-.8735,2.3394-.7881,4.8806-.9467,7.3361-.1405,3.439-.88,6.8291-.8676,10.28a56.243,56.243,0,0,1-1.1177,12.76c-.5316,2.5167-1.5943,4.8988-1.9242,7.4584-.287,2.2355-.2075,4.5141-.6046,6.7374-.4764,2.7855-1.5394,5.4244-2.1381,8.1792a34.7973,34.7973,0,0,0-.3664,7.043c-.0244,3.61.0733,7.2262.3482,10.8363-.8858.3969-1.7655.8063-2.6633,1.1667-.4764.1587-.9468.3054-1.4231.4456-.2627.0613-.7761.1957-1.0388.2627-5.5034,1.002-10.9765,2.9323-16.6513,2.3762-1.7591-.1527-3.5244-.2869-5.296-.3481-.128-.2015-.3847-.5987-.5129-.7941a19.0042,19.0042,0,0,1,2.5531-9.0221c.2812-.0977.8431-.2931,1.124-.3909a12.6714,12.6714,0,0,0,3.891-3.25c.1955-.1345.5742-.4152.7636-.55.7146-1.8263,1.79-3.4756,2.6144-5.2469.0489-1.7408-.7328-3.3657-1.0323-5.0578-.5559-2.4311.0977-4.8928.3972-7.3054.5129-3.3292.2687-6.7378,1.05-10.03.4091-1.9547,1.1179-3.9157.8735-5.9372a41.4052,41.4052,0,0,1-.6964-6.8293c.0365-3.5061,1.2035-6.8841,1.32-10.3842a32.6473,32.6473,0,0,0-.3787-5.5586,81.5183,81.5183,0,0,0-1.3684-12.48c.3054-2.9623.6291-6.3587-1.7041-8.6553-.7575-.9225-1.5943-1.7835-2.3886-2.67a16.02,16.02,0,0,1-.7756-5.3384c.4214-2.3152.91-4.6181,1.3562-6.9271a53.1657,53.1657,0,0,0,1.2764-7.886c.171-2.3209-.91-4.4652-1.1544-6.7314-.4154-4.7461.2993-9.4983.11-14.2507a7.7813,7.7813,0,0,0-3.7689,2.8464c-2.2234,3.2436-5.4609,5.571-7.898,8.6251a15.3419,15.3419,0,0,1-3.0665,3.1274,6.2053,6.2053,0,0,1-7.2995-1.7835A14.3411,14.3411,0,0,1,49.71,108.76c-.4214-2.2477.33-4.4712.5316-6.7006.092-1.1547-.6843-2.1257-1.2032-3.085-1.5883-2.4921-3.2621-4.9293-4.7526-7.4826-4.3431-7.2934-9.0587-14.3607-13.3532-21.6846-.1524-.2507-.4579-.7576-.6106-1.008-.2442-.3909-.4946-.7759-.7452-1.1607A74.051,74.051,0,0,1,22.1245,54.31Zm75.628-28.11a52.8237,52.8237,0,0,0,4.789-4.5632,39.7744,39.7744,0,0,0-3.2805,5.8459,20.47,20.47,0,0,0,4.6974-4.1295c.1832,1.9365.3422,3.8728.3912,5.8215-.9713.0978-1.9366.1955-2.9016.3055.8488-.8921,1.68-1.7961,2.48-2.7246A7.5814,7.5814,0,0,0,99.1573,29.32a17.1889,17.1889,0,0,0,6.6092,5.0577,12.6192,12.6192,0,0,0,4.6731-.7023,7.3446,7.3446,0,0,0,2.73-2.8038q-.6321-1.6858-1.2767-3.372c-1.0935-.403-2.1929-.7939-3.2864-1.1789q1.8051-.2658,3.6223-.5373c.1467-.7636.2994-1.5274.4522-2.2907.5986.4763,1.1971.9527,1.7958,1.4354l.4094.3482a42.936,42.936,0,0,0-1.1913-14.6847,5.2484,5.2484,0,0,0-2.2844-3.4389,17.8092,17.8092,0,0,0-3.714-1.1057c-.2565.9163-.5129,1.8388-.7636,2.761a21.392,21.392,0,0,0-3.3349-2.602c-2.6452.006-4.4472,2.2479-6.017,4.0742.684.11,1.3683.214,2.0587.3114.0427.77.0852,1.5394.1342,2.3092-.8368-.3117-1.6616-.6293-2.4924-.947-.2441.269-.7448.8065-.99,1.0752A31.3454,31.3454,0,0,0,97.7525,26.199Zm455.4221,78.3918v.3075c-.2465,2.41-1.67,4.482-2.8405,6.5428a27.332,27.332,0,0,0-2.6631,5.8885,36.6978,36.6978,0,0,1-1.4781,7.8861c-2.9933,6.45-2.0161,13.7131-3.2378,20.5424-.3419,3.8055-2.0035,7.36-2.2417,11.1845a51.5173,51.5173,0,0,1-.6536,6.6521c-.2137,1.5881-2.0339,1.8935-3.17,2.6021-1.9118-3.6834-2.34-7.9043-4.2027-11.6-.99-2.144-2.1072-4.3187-2.2662-6.7068-.1587-2.8283.47-5.6139.782-8.4114.1038-.9286.2261-1.8568.342-2.7854.0245-.2567.0854-.7758.11-1.0323.061-.7634.1345-1.521.2322-2.2786.0977-.7818.2014-1.5636.3236-2.3456.0368-.2442.11-.7452.1465-.99.7088-4.746.8126-9.5474,1.4174-14.3-1.6738,1.9-3.4879,3.9214-6.1572,4.2514.4947-2.9381,2.3881-5.2777,4.2024-7.5317-1.9607,1.8386-4.0193,3.6774-6.64,4.4837.47-2.5656,2.0525-4.6546,3.7078-6.5849-1.6615-.2627-3.3167-.5313-4.96-.849-.0915-.3115-.2687-.9408-.36-1.2522a71.8,71.8,0,0,1,7.4829-1.2277l.4946-.0612a11.2748,11.2748,0,0,0,3.6774-.9223,16.0989,16.0989,0,0,0,2.4006-2.4252,96.4537,96.4537,0,0,1-10.0973-12.3694c-1.0384.6291-2.4861,1.0508-2.7426,2.4129-.9162,3.2984-1.1119,6.762-2.0829,10.0543-.1772.562-.3544,1.1239-.5436,1.68l-.171.44c-1.35,3.5488-4.5876,6.3954-4.6423,10.39-.2995,5.5953,3.3044,10.36,3.7443,15.8513.2442,1.906.3726,3.83.5374,5.7481.0854,1.0629.1834,2.12.2811,3.1884.03.3849.0977,1.1545.1283,1.5456a83.59,83.59,0,0,1,.4521,8.5639c-.0307,2.3824-.1223,4.7646-.33,7.1467-.2627,4.117-.3482,8.24-.7453,12.3512-.4337,4.7156-.1223,9.45-.2992,14.1775l.6046.0063c-.0427.2991-.1282.8977-.171,1.2031a70.0559,70.0559,0,0,0,.0305,10.8606c.2567,4.49-.1039,8.9735-.1772,13.4632a49.5771,49.5771,0,0,1-.6473,9.1257c-.4339,2.254-1.234,4.4286-1.5089,6.7131a41.1223,41.1223,0,0,0,.3054,9.9505,8.179,8.179,0,0,1-.33,3.5612c-.7695,2.4129-1.8263,4.899-3.83,6.5484a9.7375,9.7375,0,0,1-6.0168,2.3639c-1.71.055-2.8893-1.4722-3.5306-2.8711-1.1242-2.5409-.2077-5.3509-.4889-8.002a8.8021,8.8021,0,0,0-1.8322-2.6144c-1.1608-1.2339-2.2175-2.7975-3.9461-3.2616a19.5787,19.5787,0,0,0-5.76-1.0266,14.25,14.25,0,0,0-3.4634,3.2255c-.6719-1.8753-1.0935-3.995-2.5778-5.4244-3.9521-1.0872-7.7516,2.1075-11.7341,1.1362a3.0809,3.0809,0,0,1-2.3822-2.9625c.287-2.6144,2.0462-4.8806,1.9363-7.5621-.0305-1.9121-.281-3.8056-.446-5.7053-.6413-6.4869-.33-13.0109-.6167-19.5163.0119-.2994.03-.8977.0365-1.1911.11-4.7951.0609-9.59.1342-14.3852.2321-8.1-.0976-16.2116.4338-24.3053.5254-8.6983.2505-17.4576,1.4355-26.101.1894-3.7383.4216-7.4707.55-11.215.0186-.843.043-1.686.0795-2.5228.1162-2.8708.4032-5.8518-.6473-8.5881-1.3072-3.4514-3.262-6.6094-4.5874-10.0486-1.0568-2.37-1.6676-4.99-3.207-7.11-2.1561-1.6064-5.0821-2.1072-6.829-4.2637-1.2829-1.9545-1.2339-4.4161-2.1319-6.5236-.7759-1.075-2.1073-1.5391-3.1948-2.2112-2.9135-1.49-5.4791-3.5734-8.4112-5.027-2.9685-1.4847-5.9557-2.9506-8.802-4.6608a4.88,4.88,0,0,1-2.1135-1.9976,13.1834,13.1834,0,0,1-.0122-8.8265c.0732-.2078.22-.6291.2931-.8431l.1833-.4886c.8553-2.193,1.747-4.3734,2.7365-6.5114.1832-.3667.5559-1.0995.7391-1.4661.5863-.8428,1.2279-1.6493,1.8753-2.4494-.055-.2262-.165-.6722-.22-.898a28.1629,28.1629,0,0,1,8.6191-4.4592c-.0489-.3419-.159-1.02-.2079-1.3559.3727-.47.7636-.9345,1.1669-1.38.4886-.5376.9956-1.0568,1.5269-1.5639,1.9-1.4783,4.1537-2.4617,5.9191-4.1232,1.6738-1.7041,2.4679-4.013,3.3841-6.1632l.1894-.4522a38.3557,38.3557,0,0,1,1.9-4.0619c.2381-.055.7085-.1773.9467-.2322,1.912-.3114,3.8422-.4825,5.7725-.6842l1.2032.501a13.7145,13.7145,0,0,1,1.2644,7.0062,14.66,14.66,0,0,1-2.3028,7.269c-1.1178,1.9547-1.0506,4.2636-1.1178,6.4384.0795,2.5348.275,5.07.3482,7.6048,0,.2932.006.88.006,1.1665.0125,2.8041-.0243,5.6076-.067,8.4115,3.4146.6472,7.0307,1.2216,9.8038,3.5,1.6433-7.7638,2.12-15.6986,3.3657-23.5171a14.437,14.437,0,0,0,.1894-3.6956c-.3237-1.6249-1.1362-3.103-1.46-4.7218a16.7346,16.7346,0,0,1,3.9277-3.7811,25.9345,25.9345,0,0,1,6.0715-3.4146c.8553-.159,1.7226-.275,2.6022-.36,3.2436.7575,5.907,2.8222,8.7045,4.5141.6108.36,1.2339.7085,1.8631,1.0567.2076.7208.4644,1.4354.733,2.144,2.364,5.0518,2.6754,10.6713,2.6694,16.1567.5741,5.1677.47,10.3964,1.4293,15.5152,2.9136.7515,5.7786,1.686,8.7412,2.2357,2.4251.4826,4.9844.9162,7.0307,2.4129,5.5951,3.9642,9.1562,9.9688,13.7683,14.9227,2.34,2.9258,5.528,5.0943,7.6049,8.2462a14.9967,14.9967,0,0,1,2.3516,6.4749c.03.3419.0793,1.0326.11,1.3745l-.1226.0348q.3855.57.784,1.1312a8.4426,8.4426,0,0,0-.2828,2.6028C551.5274,101.0777,552.8114,102.6922,553.1746,104.5908ZM470.693,56.4414c-.9222-2.4005-2.0889-4.7035-2.938-7.1284-1.2645-3.6406-.7269-7.5439-1.0935-11.3067a16.7812,16.7812,0,0,0-1.1055-2.1012c-1.4476,5.2044.2688,10.5064.4092,15.76q.55,2.4741,1.1117,4.96C468.2742,56.57,469.4836,56.5084,470.693,56.4414ZM507.38,42.8808c-.3849-1.7713-1.2157-3.4024-1.5821-5.1737-.69-2.9015-.7331-5.9863-1.9855-8.729a6.9428,6.9428,0,0,0-6.0715-3.94,5.7278,5.7278,0,0,0-4.282,2.62c-1.3376,1.68-1.7287,3.8363-2.26,5.8581-.5253,2.4066-1.8935,4.5568-2.2724,6.9942a19.0728,19.0728,0,0,0,1.6434,4.6484A27.58,27.58,0,0,1,491.822,50.84c.397,2.2846,1.6431,4.2881,2.303,6.4871.66,2.181,1.2642,4.3859,2.0708,6.5238,1.0322-.4093,2.602-.397,2.9317-1.7225.9775-2.5288,1.6006-5.1982,2.816-7.6356,1.43-2.9013,2.4069-6.0227,4.0865-8.8021A13.8352,13.8352,0,0,0,507.38,42.8808Z"/><path class="cls-1" d="M316.4078,291.1558c-.6781-.9653-1.4234-1.8753-2.1562-2.7916.1954-2.932.1832-6.1022,1.863-8.65a13.0748,13.0748,0,0,1,4.3124-4.2817,3.3742,3.3742,0,0,1,3.934.1342,7.8224,7.8224,0,0,1,1.4169,9.016A12.9089,12.9089,0,0,1,316.4078,291.1558Zm87.3193,4.9356c2.2477-.0673,4.7094-.8064,6.0106-2.7794.6048-.99.9162-2.5471-.0793-3.39-1.9855-1.9789-5.0517-1.7957-7.55-1.1117a11.5142,11.5142,0,0,0-4.6241,2.0343,4.2342,4.2342,0,0,0-.3174,3.5184C398.8648,296.0546,401.467,296.1768,403.7271,296.0914Zm16.3337,12.4611a6.4276,6.4276,0,0,0,3.3657-3.0055,2.638,2.638,0,0,0-2.199-2.8158,5.0151,5.0151,0,0,0-4.4409,1.3376c-.6168,1.4722-.3054,3.1215-.3114,4.6791A18.5713,18.5713,0,0,0,420.0608,308.5525ZM406.5979,325.68c.2262.1285.69.3787.9223.5009a29.1719,29.1719,0,0,0,6.6093-.9285c.2627-.0488.782-.14,1.0448-.1892q.4924-.16.9911-.29-.4986.13-.9911.29a28.624,28.624,0,0,0,8.1422-1.014l.5314-.0918a147.0431,147.0431,0,0,0,15.3017-2.4249l.5191-.0917c1.8509-.4276,3.7078-.8123,5.5891-1.1362l.5071-.1037c1.5875-.295,3.1844-.5309,4.7863-.7477a6.17,6.17,0,0,1,3.3158-.502,4.1519,4.1519,0,0,1,1.7507-.9982c.2688-.0611.8124-.1893,1.0813-.2565,1.863-.3422,3.7443-.5866,5.5828-1.0507.8187-.2687,1.6311-.5742,2.45-.8676.2139-.0792.6475-.2319.8612-.3114l.4155-.0977a4.1977,4.1977,0,0,0,3.7263-1.1056c.2074-.0611.6168-.1833.8183-.25,1.7225-.434,3.4634-.7759,5.1677-1.289.3177-.11.953-.33,1.2644-.44,2.0585-.7943,4.0683-1.7228,6.1755-2.4009l.4948-.1465c.7209-.2322,1.4417-.4826,2.1625-.7635,1.02-.4582,2.0217-.959,3.0543-1.3927.4092-.165,1.2155-.4888,1.6186-.6475,1.5758-.6659,3.1275-1.38,4.6728-2.1136.5131-.2627,1.0385-.5193,1.5638-.7757.2137-.0977.6477-.3055.8614-.4092.3786-.1712,1.13-.5131,1.5025-.6841.5742-.2689,1.1606-.5439,1.7471-.8186.177-.0916.5252-.2626.7024-.3543,2.877-1.4964,5.7908-2.9626,8.5151-4.7461.959-.6293,1.93-1.2462,2.8711-1.9121.05-.0656.1137-.1473.1836-.237-.07.09-.1332.1714-.1836.2371a45.58,45.58,0,0,0,5.1676-4.08,40.7688,40.7688,0,0,0-7.66-.5314c-.4276-.0245-1.2827-.0672-1.71-.0915-.22-.2262-.6719-.6718-.8919-.898a53.0555,53.0555,0,0,1-6.97-.3911c-1.24-.2015-2.4737-.452-3.7076-.6414a56.4779,56.4779,0,0,0-8.7411-.2992c-1.3072-.0122-2.6084-.067-3.9032-.1342-3.4452-.5744-6.988-1.3562-10.4637-.5681a4.1553,4.1553,0,0,0-3.2557,2.6021c-.6171,2.309-.6475,4.7338-1.1607,7.0735-.0915.2077-.2872.6231-.3849.8246a21.0737,21.0737,0,0,1-7.5071.892c-4.52-.1653-9.0588-.22-13.5544-.7394-5.1005.3239-8.851-3.6161-13.2674-5.4181a22.3983,22.3983,0,0,0-11.1968-1.7713,15.6352,15.6352,0,0,0-.0183,3.7017c.5192,1.637,2.0829,2.62,3.5552,3.3168a42.235,42.235,0,0,0,11.8013,2.932,58.3585,58.3585,0,0,1,9.932,2.3334l.0857.5254c-.1955,1.1667.0733,2.7489-1.1362,3.4329-1.8813,1.0382-4.08.3359-5.9923-.2259a27.7366,27.7366,0,0,0-6.0534-1.3135c.9162,2.6144,2.4494,5.009,2.8772,7.7881-4.0562,1.0508-8.2527.4767-12.3636.9285-5.8456.8309-10.329,4.9356-14.9226,8.2647v0C409.89,323.7073,408.229,324.6725,406.5979,325.68ZM271.3891,311.2768a26.0987,26.0987,0,0,1-3.5123,2.6144c-.22.1037-.66.3051-.88.4091-3.8053,1.5516-7.5985,3.17-11.2637,5.0457l-.11-.4461a35.036,35.036,0,0,1-5.2409,3.2009c.0122.2383.0305.7084.0365.9468a8.1836,8.1836,0,0,0-1.9668,5.5524c1.2035.2262,2.4129.4643,3.6344.6658a20.5514,20.5514,0,0,0,5.87-.0487c.77.25,1.5395.5131,2.3213.7513,3.6283.1345,7.2629.0611,10.8973.055h.562c.2932,0,.88.0061,1.1728.0061.5008-.0061,1.5088-.0246,2.0157-.0306.3055,0,.9225.006,1.234.006,4.2636.098,8.5334.0185,12.8031.0917,1.014,0,2.0342-.0062,3.06.0063.8248.0182,1.6555.0365,2.4924.0487.4214.0122,1.27.0246,1.692.0367,3.6344.116,7.2688-.0734,10.9034.11.6048.0305,1.2216.0733,1.8385.116.2567.0122.782.0428,1.0385.061.2934-.0182.8855-.061,1.1789-.0795,4.8256-.3542,9.67.0185,14.5012-.22.4581,0,1.3807-.0063,1.8388-.0063,7.843-.116,15.6924-.0488,23.5354-.2565,4.0989-.2811,8.1792-.8917,12.3024-.8063a29.3184,29.3184,0,0,0,8.0508-.8123c-.898-1.3561-1.7043-2.9505-3.2925-3.5918-4.0864-1.918-8.7533-1.6126-12.9865-2.9993-4.1415-1.35-7.953-3.6406-12.2472-4.5324-4.4528-.8063-9.126.0733-13.4689-1.4356a3.804,3.804,0,0,1-2.7548-3.3962c.4214-2.8282,2.144-5.2959,2.4249-8.1547a5.46,5.46,0,0,0-1.3989-4.5019,7.2974,7.2974,0,0,0-4.2024.2078c-1.7654,1.2889-2.6082,3.4328-3.5062,5.3509q.229,1.3286.5131,2.6573c-1.2522,1.5759-2.4921,3.3534-4.4409,4.117a18.7479,18.7479,0,0,1-9.4006.7635,12.2183,12.2183,0,0,1-7.7272-4.3491c-1.3131-1.5882-1.3988-3.7446-1.7777-5.6749-.44-3.3717-2.2232-6.45-2.1072-9.9076l.6048-.1406c1.2216-2.9136,2.0645-6.2672.904-9.3395-.6353-1.973-2.8773-3.6956-4.954-2.7243a17.04,17.04,0,0,0-7.44,6.7434,67.5553,67.5553,0,0,0-5.5768,12.2046c-.0795.2137-.2322.6351-.3056.8491a27.5021,27.5021,0,0,1-6.5787,10.5613ZM194.564,395.896c-.4032-8.7285-.3177-17.47-.3482-26.2112-.0122-.7818-.0182-1.5576-.0244-2.3272v-.6048a102.0814,102.0814,0,0,0-.348-10.7568,87.6271,87.6271,0,0,0-1.6248-9.9015,18.6581,18.6581,0,0,0-3.323-5.9006,2.1668,2.1668,0,0,0-3.4024.0427,11.4354,11.4354,0,0,0-1.8875,5.32,91.0865,91.0865,0,0,0-.5254,9.8344c-.006,1.0325.0123,2.0647.0243,3.1032-.0182.2869-.0548.861-.0733,1.1482-.3848,3.5673.214,7.14.1345,10.72-.0794,5.9065-.2259,11.82.0122,17.7325-.0426,1.6736.2625,3.6892-1.0629,4.99-1.014,1.1177-2.73,1.1238-4.08.7451a7.2683,7.2683,0,0,1-2.877-3.75,38.1949,38.1949,0,0,1-2.9688-15.46c-.006-.2992-.006-.9043-.006-1.2032v-1.1607c-.2262-9.2847.9346-18.8751-2.2237-27.8116-.7145-1.7713-1.6308-3.72-3.4328-4.5934a2.7272,2.7272,0,0,0-3.6527,1.5516,26.5179,26.5179,0,0,0-1.3317,4.6544,42.3553,42.3553,0,0,0,.165,6.3466c-.0062,3.0848-.2016,6.17-.2872,9.2543-.0245.4029-.0794,1.2154-.1039,1.6185-.1832,4.8379-1.4842,9.5782-1.24,14.4342.22,3.4634.11,7.0248,1.2462,10.36a25.4976,25.4976,0,0,0,3.8115,8.9063c2.2967,3.6286,6.4566,5.3262,9.45,8.2585a6.18,6.18,0,0,1,1.3926,2.2722,111.41,111.41,0,0,1,.9836,11.8566l.067-.495c.1894.4336.5681,1.301.7574,1.7348a15.69,15.69,0,0,0,1.4844-2.0585,11.9784,11.9784,0,0,0-1.576-3.103q.2473-.99.5313-1.9609a3.7134,3.7134,0,0,0,2.4862,2.26c-.1283-3.653-1.9975-7.1592-1.4536-10.8177a9.66,9.66,0,0,1,4.9841-3.1888c1.1913.8124,2.2236,1.8386,3.3415,2.7548,1.2949,1.1058,2.7365,2.236,3.268,3.94,1.1362,2.7428.5436,5.8643,1.741,8.5761.4457-3.2555-.0979-6.5843.5984-9.8038.2384-.2929.7208-.8733.9653-1.1607a33.7538,33.7538,0,0,0,.7695,6.0658,5.7428,5.7428,0,0,0,.7758-2.59C195.4558,404.9668,195.0221,400.4284,194.564,395.896Zm-43.4122.7332c2.877,3.61,6.5543,7.2746,6.6826,12.1922a73.4537,73.4537,0,0,1-.9468,11.099c-.8613-.3117-1.9668-.1895-2.6266-.9041.3236-2.5046.55-5.0212.733-7.5439q-1.1547-.0363-2.3088-.055a79.4374,79.4374,0,0,0-.098,9.8041l.0184.6229c-.9772-.2994-1.9485-.5926-2.926-.8918.3114-2.2784,1.1668-4.6546.3239-6.9083a24.199,24.199,0,0,0-5.003-8.5458,4.9717,4.9717,0,0,0-2.4617-1.1,50.89,50.89,0,0,1-1.8752,6.4261,35.1113,35.1113,0,0,0-1.4232-5.076,9.0892,9.0892,0,0,0-3.4756-1.906,32.2751,32.2751,0,0,1-8.4966-4.404,24.9265,24.9265,0,0,1-7.9593-10.69c-.7146-2.4129-2.2235-4.899-1.7166-7.4586-.1647-.4456-.4946-1.3374-.66-1.7836a57.9431,57.9431,0,0,1-.3114-8.1057c.1527-1.1972.3419-2.3762.4946-3.5673.0428-.3787.1282-1.1483.171-1.5269a94.41,94.41,0,0,1,7.66-15.9123c.1408-.2809.4339-.8431.5743-1.118.446-.6352.9286-1.24,1.43-1.82a56.9162,56.9162,0,0,1,6.0472-5.9068c1.5576-1.2217,3.5-2.3027,5.5464-1.9667a6.2079,6.2079,0,0,1,2.4617,2.1744c1.069,1.1179,2.4188,2.1379,2.8952,3.6774,3.7811,2.1195,6.2735,5.9,7.99,9.7733,1.3132,3.3659,2.04,6.927,3.14,10.3719a37.39,37.39,0,0,1,1.3314,11.5511c-.0182,1.3254-.0367,2.6509-.0547,3.9886-.2627,3.1336-.5317,6.3894-2.0588,9.2054C153.1433,392.39,152.05,394.4607,151.1518,396.6292Zm-6.86-33.7552a64.7672,64.7672,0,0,0-3.9214-14.1285c-.3971-.5681-.8-1.1239-1.2156-1.6676a44.6954,44.6954,0,0,0-9.1625,16.2118c-1.2522,5.7965-2.4434,11.7768-1.2706,17.6955.0611.3607.1831,1.0875.2444,1.4479.0487.2262.14.6843.1832.91.5071,2.1989.9957,4.5016,2.3639,6.3526.9775,1.3134,2.5289,1.973,3.9277,2.7241-.8308-2.3334-1.9242-4.5506-2.9565-6.7926a26.168,26.168,0,0,1-.794-5.5464c1.649-.2744,3.4451-.5618,5.0149.22a38.0825,38.0825,0,0,1,5.2655,3.39C144.53,377.0638,144.4631,369.8622,144.292,362.874Zm56.2216,54.3523c-.03.4828-.0916,1.4541-.1223,1.9427q1.2552-.0828,2.5288-.1649A2.8065,2.8065,0,0,0,200.5136,417.2263Zm32.35-1.2032a14.1414,14.1414,0,0,0-.5314,3.0727,16.9761,16.9761,0,0,0,1.13,2.7423c.47-.3664.9285-.745,1.3807-1.142A4.4035,4.4035,0,0,0,232.8635,416.0231Zm-136.2168,1.979c-.2564,1.3625,1.2522,1.863,2.1073,2.5414a9.2415,9.2415,0,0,0-.018-5.058C97.8807,416.1516,96.4878,416.6767,96.6467,418.0021Zm43.626-4.96a7.3055,7.3055,0,0,0,.8615,6.3225,7.8353,7.8353,0,0,0,1.5147-2.1566,5.7288,5.7288,0,0,0-1.7042-4.5384C140.7736,412.7674,140.4376,412.9506,140.2727,413.0421ZM272.4946,289.8913c.6294-1.5086,1.1483-3.6588-.2381-4.905a5.49,5.49,0,0,0-5.1435-.6108,4.2358,4.2358,0,0,0-1.8873,1.3194c-.3849,1.7776-.4644,3.9948.9468,5.3631A4.0218,4.0218,0,0,0,272.4946,289.8913ZM99.2611,366.57l-.061-.385c-.2076,0-.6291,0-.8368.0063-.2627,0-.788.0063-1.0507.0063-.9775.2319-1.9363.5128-2.8893.8183-.2444.0732-.7268.2322-.9652.3116-1.5087.33-3.0358.5374-4.5629.7453-.006-.9162,0-1.8263.0245-2.7365A69.6529,69.6529,0,0,1,94.6983,354.28c.36-.58.7208-1.16,1.0812-1.7348.5863-.9527,1.1545-1.9057,1.6981-2.8707.7086.1341,1.4109.2746,2.12.4274,1.4292,2.9259,2.6508,6.09,4.9782,8.4478,1.6551,1.6494,4.5324,2.187,5.2654,4.6364.4825,3.1885-1.0689,6.7376.8614,9.651.3234-.2624.9587-.7878,1.2827-1.0566a56.611,56.611,0,0,0-.99-7.4337,32.1819,32.1819,0,0,1,2.6876-5.6321l-.2381-.4336a33.8278,33.8278,0,0,1-2.3335-4.7464c-.5864-1.4473-1.2157-2.8767-1.924-4.2634-.3972-.7818-.8126-1.5516-1.2647-2.2907a46.8435,46.8435,0,0,0-6.2854-5.4609c-.55-.165-1.0995-.3054-1.6554-.4274-1.136-.2447-2.2784-.4461-3.4269-.6171a16.13,16.13,0,0,0-6.0592,2.4679c-.4887.3054-.9776.6168-1.46.94l-.3969.2565c-3.25,2.1442-6.64,4.4348-8.5883,7.9165a32.9138,32.9138,0,0,0-3.2682,8.2952c-.7573,3.0235.2325,6.1022,1.3195,8.9123a24.5112,24.5112,0,0,0,3.6528,6.6638c1.863,2.193,4.7889,3.0238,6.8475,4.9907-.4336,3.0786-1.8875,6.1268-.8123,9.26.47-.0975,1.4171-.2872,1.8876-.3846a49.1414,49.1414,0,0,1,.9345-9.462c.36-.1772,1.0749-.5376,1.4353-.7146,2.4984-1.2584,4.8869-2.712,7.318-4.0927a5.853,5.853,0,0,1-.5439,5.2164,32.209,32.209,0,0,1-4.63,7.6662c-.36.3969-.7208.788-1.0933,1.1787-1.9059,1.967-4.0987,3.8178-6.829,4.4776a27.0614,27.0614,0,0,0-6.084-5.7176c-.6843-.6718-1.3257-1.3864-1.9607-2.1012-1.2158-.2017-2.4314-.3969-3.6469-.5376-2.7121,2.6693-1.3439,6.6524-.0915,9.67.6352,2.0707,2.7059,3.0238,4.2452,4.3307,2.1747,1.6313,3.8848,3.9462,6.4382,5.04,4.1292,1.521,8.6129,1.16,12.9315,1.2214-.3239,2.84-1.2279,6.0472.6473,8.5581,1.1486-3.3476.8921-7.1653,2.8283-10.2195.1772-.0242.5315-.0732.7086-.0977a20.8612,20.8612,0,0,1,1.6127,5.3327c.1162,2.2051-.9531,4.2939-.8371,6.5054.8553.678,1.9916.6228,3.0175.794.8493-4.0255-.3846-8.118.1772-12.1312,1.24-1.6126,3.2437-2.5532,4.166-4.4224a43.0935,43.0935,0,0,0,2.6266-8.6189c.4276-.5314.8553-1.0629,1.2949-1.5823a34.17,34.17,0,0,0,4.3-1.2275c-1.7287-.165-3.4636-.2444-5.1981-.2507C114.8865,379.1345,108.4788,369.1657,99.2611,366.57ZM67.95,381.6514l.2381-.3607c-.2015,3.4086.049,6.8355-.2809,10.2379-.1038-.1529-.3117-.4645-.4154-.6173q-3.5549.2478-7.1222.3546c.0852,1.3927.1769,2.7913.2379,4.19a11.8758,11.8758,0,0,0-3.8666,4.5323c.8551,1.7106.049,3.7141-.14,5.51-.3669.0547-1.1117.1589-1.4846.2136-.0485-2.01-.171-4.013-.122-6.0167.0123-.5129.0428-1.5514.0611-2.0648-.4155-1.3621-.8367-2.7183-1.2033-4.0925-.0675-.3053-.2077-.9162-.2809-1.2217a38.0213,38.0213,0,0,0-4.4106-1.1422c-.7269,2.022-.7329,4.8626-3.2435,5.5159a43.6932,43.6932,0,0,1-1.5389,6.6459,74.3526,74.3526,0,0,1-4.8993-5.84,64.657,64.657,0,0,1-.33-7.1347c-1.82.1162-3.8055.8858-5.5586.1285-1.2584-1.2463-1.4846-3.1643-1.7716-4.8256-.1647-1.4477-.2684-2.8893-.3848-4.3309,2.5716.0487,5.1492.0427,7.7211.006a43.5318,43.5318,0,0,0-.0858-7.782,45.577,45.577,0,0,1-5.9188.1406c-1.4474-2.1624-1.118-4.954-1.3436-7.4279,2.4494.0305,4.8988.0185,7.3544-.0672.1954-3.4819.116-6.9636.0485-10.4392.0185-1.4354,0-2.871-.0427-4.3l.5131.0185c2.7672.1282,5.54.1466,8.3139.1527-.0125.9162-.0187,1.8385-.0125,2.7671.0367,1.5941.0975,3.1824.1342,4.7828.269,2.2479.6721,4.4836,1.0263,6.7313.7638.1832,1.5274.3729,2.2967.5741,1.5211-4.8073.947-9.92,1.1-14.8738a18.2069,18.2069,0,0,1,7.5988.0124l.336.0733a37.4546,37.4546,0,0,1-.1342,8.5149c.5556,1.8388.2684,3.8056.2931,5.6991a34.7842,34.7842,0,0,1,7.3422.47c-.0917,3.1214.2932,6.2734-.1772,9.37-.953,1.716-2.4067,3.1152-3.25,4.9172a58.3979,58.3979,0,0,0-2.309-7.08,19.4906,19.4906,0,0,0-1.3679,2.3822,20.32,20.32,0,0,0,.0793,5.2044q1.8506-.0458,3.7013-.0731C65.7505,381.285,66.85,381.4619,67.95,381.6514Zm-18.6245-7.8981c-1.9058,1.9973-1.5761,4.8375-1.5946,7.3727q2.09.0824,4.1782.1894C52.294,378.4809,50.7487,376.0437,49.3252,373.7533Zm316.45,40.9564c-.5373.3546-1.0687.7271-1.588,1.1057.0917,1.6186.1772,3.2375.2688,4.8623q1.2917.5038,2.6022,1.0262a40.5411,40.5411,0,0,0-.5317-4.3981C366.3377,416.42,366.0445,415.5587,365.7755,414.71Zm59.4163-25.2338c-.012.892-.012,1.7963-.012,2.7.2565-.0064.7633-.0185,1.014-.0249-.0125-.8914-.0125-1.7835-.0125-2.663C425.9371,389.4822,425.4363,389.4759,425.1918,389.4759ZM419.45,409.0228c-.1955-.2871-.58-.8553-.7759-1.136-.66.0365-1.3071.0793-1.9484.128a20.0352,20.0352,0,0,0,2.028,7.9778A34.1822,34.1822,0,0,1,419.45,409.0228Zm6.8109-26.9255c1.747,1.6248.4886,4.0314.03,5.925a8.8375,8.8375,0,0,0-4.7646-3.1824c-.8613,4.8987.8369,9.6755,1.8631,14.4036l.0857.4947c.116.77.2322,1.5453.3236,2.3333a11.5514,11.5514,0,0,1-2.535,6.6459,57.8668,57.8668,0,0,1,1.7287,8.9488c-2.1561-1.9972-2.3089-5.0148-3.06-7.6721l-.1527-.5132a12.1677,12.1677,0,0,0-3.5916-6.713l-.318-.348c-.7635-4.6-2.4981-8.9612-3.42-13.524-4.3676-.2016-8.6495.849-12.9682,1.2951-1.2645.2564-3.03.25-3.5,1.7345-1.7286,3.9034-2.5838,8.1731-4.6851,11.9236-.9223,1.7471-3.4024.8431-4.7645,1.9-1.3437,2.37-.8245,5.3569-2.0767,7.7758a25.8911,25.8911,0,0,1-2.92,3.4209c-.1648-.5743-.3115-1.1484-.44-1.7166a35.4262,35.4262,0,0,1,1.2949-11.7343c2.8343-12.3267,5.748-24.6656,10.0118-36.5949,2.5289-7.0371,5.2164-14.0189,7.5314-21.1291a75.8581,75.8581,0,0,1,2.7428-7.2017,34.18,34.18,0,0,1,5.6991,2.5836c1.3072.8553,1.869,2.4007,2.48,3.7691a92.3312,92.3312,0,0,1,3.769,11.4776c1.0445,4.1415,1.1667,8.442,2.1439,12.5957.5743,2.4734,1.0873,4.96,1.7045,7.4274a5.8332,5.8332,0,0,0,1.35,2.8588C421.7774,380.6128,424.361,380.6616,426.2609,382.0973Zm-16.2851-1.9608a40.3947,40.3947,0,0,0-.788-7.8615c-.6229-3.4757-.7818-7.0066-1.35-10.482a7.48,7.48,0,0,0-1.5881-3.3717,13.3651,13.3651,0,0,0-2.089,4.9416c-.7576,3.6221-1.9548,7.1407-2.6756,10.7753-.5314,2.6019-1.3071,5.143-2.0157,7.6965A102.3242,102.3242,0,0,0,409.9758,380.1365Zm58.4633,29.5459c.2689-2.0645.7026-4.0985.9653-6.163.3908-.2264,1.1667-.6783,1.5573-.9043a53.8473,53.8473,0,0,0,.6966,7.5439,23.5264,23.5264,0,0,0,.8917-10.9461c-.7695-1.5942-1.6921-3.1091-2.5837-4.63-.324-.0852-.9713-.2442-1.2951-.3236-.2444-.0612-.7269-.177-.9652-.2323-.22-.0549-.6658-.1526-.8855-.2076a54.6648,54.6648,0,0,0-15.6742-.9467,42.4872,42.4872,0,0,1-5.8455.1221c-.2262-.0367-.6781-.1037-.9043-.14-.3114-6.6766-.116-13.3652-.3544-20.0476-.1892-5.1007-.1769-10.2074-.22-15.3139a34.4543,34.4543,0,0,0-1.79-11.3554,13.006,13.006,0,0,0-3.1947-5.4547c-1.0138-.9467-2.5044-.8553-3.7688-1.0994a48.8225,48.8225,0,0,0-1.6738,15.4845c-.3969,10.7874-.6046,21.5807-.7208,32.3745a24.0607,24.0607,0,0,1-.4579,5.9249,14.0982,14.0982,0,0,1-3.6224,4.4593c.4339.5984.8735,1.2035,1.3255,1.8142.11.1771.3358.5312.4521.7084a34.6,34.6,0,0,1,1.35,3.5859c.165.5434.3359,1.0932.5069,1.6491-.2625.22-.7756.66-1.0383.8795.1893.5927.3786,1.1973.58,1.8021.3787-.03,1.13-.098,1.5089-.1285a21.5989,21.5989,0,0,1,.2322-5.9188c.2565-.0062.7758-.0122,1.0322-.0184.2567.2444.7758.7268,1.0385.9714.7206.6717,1.4539,1.3375,2.2358,1.9606a36.64,36.64,0,0,0,5.9249,1.686c.055,2.254.1038,4.508.2078,6.7681.4641.0181,1.3926.0488,1.857.067a58.32,58.32,0,0,0-.0855-6.6948c-.0917-.3906-.2627-1.1727-.3481-1.5634.7268-.3972,1.472-.7758,2.2232-1.1365l.562.1285a40.9394,40.9394,0,0,0,10.1155.2627c.281-.0185.8431-.055,1.124-.0733.2687-.0246.8124-.0674,1.0873-.0916,2.26-.3055,4.5078-.7334,6.768-1.063a53.1376,53.1376,0,0,1-.5194,9.3946c.3.2017.8981.6108,1.1975.8186,1.4659-.0791,2.9381-.1345,4.4041-.2992.1955-.1469.58-.4461.7756-.5989A9.3167,9.3167,0,0,0,468.4391,409.6824ZM416.5,419.3278q.2106,1.3012.4582,2.62,1.4658-.9438,2.9443-1.8753a17.89,17.89,0,0,0-2.8834-4.1357C416.8539,417.0616,416.64,418.1918,416.5,419.3278Zm97.93-40.5535c-.08-.2444-.2445-.7271-.324-.9713-.1891-.4578-.3845-.91-.58-1.3438a30.0991,30.0991,0,0,0-6.5849-7.2873c-2.5716-1.9547-5.9128-3.2436-9.15-2.4556a38.84,38.84,0,0,1-7,1.4966,16.1171,16.1171,0,0,1,1.4173-5.3326,79.2632,79.2632,0,0,1,5.3937-9.7794,13.7389,13.7389,0,0,1,3.2312-3.8055c2.6754,2.3454,2.8893,6.4014,5.54,8.796,1.8325,1.6429,3.9583,2.9073,5.8336,4.5019-.1713,3.4512-.58,6.982.4091,10.36.69-.5744,1.7286-.9835,1.7958-2.0218.4521-2.3336-1.0628-4.4226-1.3009-6.6886a20.5818,20.5818,0,0,1,2.5654-4.93c-1.1238-2.7791-2.0768-5.6259-3.2925-8.3684-1.6553-3.7994-4.8011-6.6824-8.0813-9.0893-2.12-1.5941-5.0027-1.6613-7.4706-.9957a24.65,24.65,0,0,0-6.1022,3.4636c-3.1825,2.2479-6.6154,4.5018-8.5089,8.0325a32.599,32.599,0,0,0-3.2374,9.0646c-.501,2.4129.452,4.777,1.2034,7.0307,1.05,3.097,2.4371,6.2492,4.972,8.43,2.0767,1.8141,5.2045,2.5044,6.3162,5.2957a7.1573,7.1573,0,0,0-2.022,5.7238c.0612,1.4171,1.6128,1.7346,2.67,2.1927a80.8169,80.8169,0,0,0-.0613-8.4294,45.83,45.83,0,0,1,9.7246-6.1817c.3177.8183.5681,1.6613.88,2.4922-.5131.8734-1.0079,1.7532-1.5026,2.6325-.1955.1955-.5985.5806-.794.77-.1467.33-.44.9836-.58,1.3134a34.4185,34.4185,0,0,1-2.6388,5.1248c-.1405.22-.4091.66-.5436.88l-.397.2625a22.5335,22.5335,0,0,0-3.5246,3.256,19.8347,19.8347,0,0,1-3.4269,1.5453c-2.834-1.875-5.07-4.5264-7.9713-6.3342-.6538-.4523-1.3134-.898-1.9792-1.3134-2.1563-1.7043-4.2942,1.1359-4.3124,3.1947a17.586,17.586,0,0,0,1.82,6.3587c1.0384,2.34,3.5121,3.4574,5.6013,4.685a2.7918,2.7918,0,0,0,1.1973,1.8936c.3116.2017.9345.6048,1.2459.8126,1.1852.7145,2.4009,1.3987,3.6591,2.0035,2.3761,1.1239,5.0822.843,7.6353.8,1.2767.049,2.5656.1042,3.8608.1589a41.2827,41.2827,0,0,0,.2075,6.8414q.3845-.5784.7689-1.1544-.3757.5831-.7537,1.1661l-.2631.4069c.6792.1,1.3651.207,2.0633.32.0293-.4773.0836-1.4368.1137-1.9194-.0061-.4313-.0231-1.2816-.03-1.7418l.025-.0394c.0123-.7026.0306-1.4049.0425-2.0953.5622-1.0443,1.1975-2.0462,1.8388-3.0419.9163,1.4663,2.1747,2.9319,2.15,4.7645a26.6006,26.6006,0,0,1-1.1727,6.0839c.7451.6172,1.4781,1.2523,2.2234,1.8936.7941-1.3069,1.6369-2.7118,1.4232-4.3126.1283-2.9746-1.2645-6.2915.5436-8.9729,1.4416-1.5393,3.0847-2.9869,3.9278-4.9722a35.2215,35.2215,0,0,0,2.6266-15.54C515.29,382.0607,514.9,380.4052,514.4292,378.7743Zm-15.161,37.6642c-.0123.2624-.0367.7878-.049,1.0444.0428,1.0081.1467,2.01.25,3.0236.69-.3175,1.3927-.6229,2.1012-.9221-.415-1.4721-.849-2.9382-1.3193-4.3859C500.0073,415.51,499.5124,416.1268,499.2682,416.4385ZM242.0262,387.216c.1037,1.68.2442,3.3536.4154,5.0334-.4154-.0672-1.2522-.1894-1.6676-.2566.1405-1.3682-.0125-2.8708.8123-4.056-.4888-.9345-.9712-1.8631-1.4476-2.7978-.91.0857-1.82.159-2.7124.3239a6.9789,6.9789,0,0,0-.1952,4.3552c.8368,4.3,2.0463,8.5579,2.2907,12.95.14,2.4494-1.7473,4.3859-2.0587,6.7315.3544,2.6939,1.4049,5.3082,1.13,8.0813-2.071-2.1257-1.8693-5.29-2.5656-7.9778-.3787-2.4306-2.15-4.2509-3.2192-6.3769a35.327,35.327,0,0,1-3.1335-9.0708,34.9,34.9,0,0,0-1.1912-4.942c-2.3824-.971-5.0393-.1037-7.4949.159-2.6021.4949-5.29.5191-7.837,1.2587-1.0812.28-1.4172,1.4534-1.7594,2.3759a75.0382,75.0382,0,0,1-4.9477,12.3329c-1.35-.0795-3.17-.8552-4.1048.5741-1.35,2.3882-.733,5.4-2.0035,7.8188a17.89,17.89,0,0,1-3.4268,3.1153,37.7707,37.7707,0,0,1,.5193-9.7856c1.0872-4.6181,1.9363-9.291,3.2435-13.8538,1.7715-6.3465,3.1456-12.8094,5.3019-19.046.892-2.5961,1.71-5.2165,2.5474-7.8251.2869-.8853.5741-1.7651.88-2.6324.5925-1.6921,1.2644-3.3474,1.8568-5.0334.22-.69.44-1.3743.6779-2.0523,1.35-3.8056,2.6329-7.6356,4.0684-11.4167.0977-.2931.2869-.88.3788-1.173.0487-.1708.1465-.5128.1953-.6778.0917-.3236.2809-.9712.3788-1.2952.1159-.22.36-.6533.4827-.8732.1219-.2139.3726-.6536.4946-.8735.3177-.5375.6353-1.0753.9528-1.6066a27.2579,27.2579,0,0,1,5.5648,2.0829,9.7767,9.7767,0,0,1,1.6126,2.6939c2.254,5.29,4.6179,10.69,5.0028,16.5108a120.3009,120.3009,0,0,0,3.3657,16.621,5.1978,5.1978,0,0,0,1.4843,2.7183c2.04,1.3743,4.7829,1.4108,6.64,3.1029A4.69,4.69,0,0,1,242.0262,387.216Zm-21.2327-24.7572,2.4676.293a10.5786,10.5786,0,0,0-.5191-4.2877l-.904-.1957A15.3342,15.3342,0,0,0,220.7935,362.4588Zm5.1247,17.9769a66.4671,66.4671,0,0,0-1.185-11.27,22.48,22.48,0,0,0-1.0812-4.3554c-.4091-1.13-1.5941-1.6309-2.51-2.266-.4459.5926-.88,1.2033-1.289,1.8324-.9467,5.9984-3.1824,11.6733-4.7036,17.5313C218.747,381.5171,222.3267,380.9426,225.9182,380.4357Zm28.618-338.0435c2.2662.965,4.6,1.747,6.8963,2.6326,3.8422-2.3884,7.9165-4.7583,10.47-8.6189,5.2289-7.3544,7.2507-17.6961,2.67-25.8508-.3055-.5678-.6234-1.1237-.9348-1.68-.122-.214-.36-.6293-.4826-.843a32.7366,32.7366,0,0,0-2.315-2.7976,31.23,31.23,0,0,0-3.2864-2.138l-.4152-.22c-1.1241-.5314-2.2724-1.02-3.4331-1.4536a37.2257,37.2257,0,0,0-6.53-.6354,13.9051,13.9051,0,0,0-9.1077,3.3169,17.7018,17.7018,0,0,0-5.9555,7.1407c-.0977.22-.2994.66-.4031.88-.33.7941-.6354,1.6065-.9041,2.425a35.3782,35.3782,0,0,0-.1956,8.8755,23.9946,23.9946,0,0,0,4.4836,10.7387A23.1221,23.1221,0,0,0,254.5362,42.3922Zm-19.889,370.2225c.5192-1.6984.0124-3.47-.3176-5.1432-2.0829.91-1.6188,3.3839-1.1667,5.1737A.9956.9956,0,0,0,234.6472,412.6147Zm46.558-53.4055c1.0386,4.2577.9285,8.68.8246,13.0293a47.9213,47.9213,0,0,1-1.3317,10.7933c-.8123,3.3289-2.2477,6.5116-2.6021,9.9445-.4153,3.8483.2445,7.7028.3667,11.5511-.77.0058-1.5393.0183-2.2969.03-.0733-3.5123-.1343-7.0244-.4337-10.5245-3.3229,2.2172-5.6319,5.5341-8.54,8.2094a46.376,46.376,0,0,1,2.1807,7.2384c-.8978-.1709-1.7956-.3173-2.6631-.55-.5313-2.3825-.0245-4.82.275-7.19-2.975-.0243-5.7787,1.0994-8.6129,1.8325a85.7017,85.7017,0,0,1,.4521,8.9365,12.28,12.28,0,0,1-1.7838,5.0273c-2.3394-3.3535-1.2584-7.5622-2.1747-11.3-2.04-.5316-4.2207-.4094-6.1937-1.1912a6.1232,6.1232,0,0,1-2.84-3.8175c-.3362-1.8388.2564-3.6714.5191-5.4795.5559-3.1334.0914-6.3159.061-9.4678-.0548-4.9785-.2382-9.9688.1832-14.9351.269-3.8.9163-7.55,1.35-11.3249.1709-1.3927.3541-2.7854.5129-4.1782l.0551-.5556c.4762-5.2595.88-10.5859,2.541-15.6315q2.8128.8613,5.5708,1.9181c1.1362-.5071,2.2724-1.0323,3.4087-1.5516l-.2262-.4029c.2322.03.7086.0852.9467.116,2.8771.2319,5.9191-.0246,8.5947,1.2642,3.3411,1.4966,5.6013,4.52,7.678,7.41.1773.2687.5377.8062.7208,1.075.1283.25.3972.7453.5254.9957A54.8919,54.8919,0,0,1,281.2052,359.2092Zm-11.1966-2.8711c-.2383-2.767-.7391-5.8213-3.0053-7.6964l-.3849-.1344c-2.62,2.144-5.8091,3.6833-7.9408,6.3649-1.0874,3.1885-.4031,6.6826-.4641,9.9995.5861,8.185-.0063,16.529,2.1622,24.531a19.2887,19.2887,0,0,0,4.8745-4.7276,24.8562,24.8562,0,0,0,3.1643-7.7149A69.0584,69.0584,0,0,0,270.0086,356.3381Zm66.1962,25.9241c-2.0522-1.8693-4.8925-2.4191-7.5313-2.92-5.2532-.9589-10.6408-.22-15.76,1.0872a13.0679,13.0679,0,0,0-6.0165,3.0665,3.697,3.697,0,0,0-.3727,4.0988c.9958,2.15,2.7,3.842,4.1782,5.6561a9.8787,9.8787,0,0,1-8.7841,2.0462,7.91,7.91,0,0,1-4.3674-6.6153,33.14,33.14,0,0,1,1.2094-10.86,102.0437,102.0437,0,0,1,5.7541-16.2971c2.187-4.9786,4.954-9.6637,7.55-14.4281,1.7347,3.9459,3.5915,7.99,6.6763,11.0926,1.5636,1.6066,3.9093,1.8206,5.968,2.358-.0307,2.7977-.4826,5.6073-.1406,8.3991.0794,2.2477,3.879,2.7793,4.38.4886.22-1.9975-1.3132-3.72-1.4354-5.693-.0793-2.7548.5925-5.54-.055-8.2645-1.4111-6.139-6.06-11.05-11.4532-14.0311a16.9427,16.9427,0,0,0-5.0577-1.5883c-.2688-.0488-.8-.14-1.069-.1892a24.8781,24.8781,0,0,0-5.5524,2.7488,33.5541,33.5541,0,0,0-2.4129,2.5164c-5.8458,6.3712-9.9383,14.1165-13.4629,21.9536a33.535,33.535,0,0,0-2.8158,19.9805,21.6928,21.6928,0,0,0,7.4032,13.5362c2.1869,1.8142,4.6546,3.4026,6.2367,5.8335a25.2561,25.2561,0,0,0-.3055,8.2707c.336,1.3684,1.6,2.1747,2.5657,3.091.2687-1.7713.7633-3.6286.2137-5.3939a41.3427,41.3427,0,0,0-1.7041-4.1292l.1769-.4457c.336-.8307.6967-1.6495,1.0568-2.4616,2.9383.2992,5.913.7693,8.8693.36,2.4861-.2989,4.899-1.1114,7.4219-1.1358,1.869-.0429,3.3534,1.6551,3.8116,3.3472.4886,3.3657-1.6312,6.6766-.66,10.0118.3,1.3559,1.7349,1.7715,2.8038,2.37.2137-5.76-.9345-11.5266-.1162-17.2686a18.58,18.58,0,0,1,1.0692-3.3779c.1283,2.5045.006,5.0149.1954,7.5255.1406,1.0138.116,2.3517,1.2583,2.8039,1.2522.8735,2.7183-.165,4.0195-.4154-.9713-2.51-2.5046-4.7768-3.2742-7.3485-.1467-2.6571,1.0507-5.1922.88-7.8491a24.7036,24.7036,0,0,0-1.2949-5.0394,35.7126,35.7126,0,0,1,9.4374-2.9015c-.2137,2.3394-.8185,4.7156-.3971,7.0674.6293.5557,1.2829,1.087,1.967,1.6a23.2065,23.2065,0,0,0,.7208-7.5009C337.83,385.61,337.6466,383.5509,336.2048,382.2622Zm42.6673-9.1932a58.8449,58.8449,0,0,1-.7819,16.8531c-.7513,3.9645-2.1134,7.7761-3.042,11.7037-.1467,3.4143-.5681,6.9147.3727,10.2621.25.9467.5374,1.8873.8308,2.8342-.0855.9713-.2017,1.9423-.3,2.92-.9955.1283-2.2294.9223-3.0969.0795-1.0628-1.1607-1.2522-2.81-1.6066-4.27l-.0855-.5862c.0855-.2259.2507-.6841.3359-.91,1.5394-3.83,2.0283-7.9531,2.81-11.9723-.3238-.6964-.6352-1.38-.9468-2.0648-1.5759,1.527-3.2068,2.9872-4.7951,4.4959a8.3953,8.3953,0,0,0-2.5654,3.58,27.7611,27.7611,0,0,0-.4949,6.041c-.1954.171-.5863.5191-.7755.6964-.5866-2.0341-.77-4.398-2.2909-5.9863-2.6753-1.3682-5.8823-1.1425-8.57-2.51-5.5464-2.7608-9.2542-8.2222-11.105-14-2.4006-6.2369-2.5228-13.0967-1.5334-19.6326a65.9015,65.9015,0,0,1,3.2927-11.2638,36.1561,36.1561,0,0,1,14.9593-17.9767c1.3867-.7333,3.03-1.7775,4.6484-1.1667,1.7347,2.0279,2.8343,4.5139,4.38,6.6886a52.2836,52.2836,0,0,1,6.7373,12.18C376.8378,363.6133,378.4689,368.2249,378.8721,373.069Zm-10.7936-.9038c.0429-3.9278-.9283-7.7516-1.5331-11.6061a36.6886,36.6886,0,0,0-3.8911-11.5264,36.1243,36.1243,0,0,0-7.7211,14.7026c-2.3456,7.9958-3.4633,16.4926-2.1439,24.7758.69,3.28,3.1091,7.0978,6.927,6.7742,3.2862.4031,5.62-2.5167,6.78-5.2165C368.8116,384.3879,368.0357,378.133,368.0785,372.1652Zm16.8593,45.287c.006.4034.006,1.222.006,1.6251.3971-.0062,1.1911-.03,1.5881-.0367-.104-.2807-.3115-.8488-.4214-1.13C385.8173,417.7946,385.2309,417.5687,384.9378,417.4522Zm-81.8157-3.2372a18.6776,18.6776,0,0,0,.226,5.1862c.2994.8611,1.4048.9588,2.0951,1.4169a15.3172,15.3172,0,0,0-.1526-5.0942C305.12,414.6427,303.91,414.5877,303.1221,414.215Z"/><path class="cls-2" d="M420.3113,105.2291a17.1493,17.1493,0,0,1,2.6755,5.7174c.8246,2.7915,2.1745,5.4669,2.4,8.4051.159,1.8691.3912,3.7324.5866,5.5952-1.4174-2.7181-1.6738-5.8211-2.5473-8.7226-.9345-3.6956-2.62-7.1835-3.1152-10.9951M97.7524,26.199a31.3451,31.3451,0,0,1-1.46-13.17c.2447-.2687.7454-.8062.99-1.0752.8308.3177,1.6556.6353,2.4924.947-.049-.77-.0915-1.5394-.1342-2.3092-.69-.0974-1.3747-.2014-2.0587-.3114,1.57-1.8263,3.3718-4.0682,6.017-4.0742a21.392,21.392,0,0,1,3.3349,2.602c.2507-.9222.5071-1.8447.7636-2.761a17.8092,17.8092,0,0,1,3.714,1.1057,5.2484,5.2484,0,0,1,2.2844,3.4389,42.936,42.936,0,0,1,1.1913,14.6847l-.4094-.3482c-.5987-.4827-1.1972-.9591-1.7958-1.4354-.1528.7633-.3055,1.5271-.4522,2.2907q-1.8141.2748-3.6223.5373c1.0935.385,2.1929.7759,3.2864,1.1789q.6416,1.686,1.2767,3.372a7.3446,7.3446,0,0,1-2.73,2.8038,12.62,12.62,0,0,1-4.6731.7023A17.1889,17.1889,0,0,1,99.1573,29.32a7.5814,7.5814,0,0,1,4.7706-2.5656c-.8.9285-1.6311,1.8325-2.48,2.7246.965-.11,1.93-.2077,2.9016-.3055-.049-1.9487-.208-3.885-.3912-5.8215a20.47,20.47,0,0,1-4.6974,4.13,39.7744,39.7744,0,0,1,3.2805-5.8459A52.8111,52.8111,0,0,1,97.7524,26.199Zm12.26,4.4834c-1.008.2564-.4887,1.8753.4824,1.4659C111.4963,31.8918,110.9769,30.2792,110.0119,30.6824Zm.8978-1.2705c.7271-.88-.8063-1.93-1.4169-1.0139C108.778,29.2774,110.2929,30.3282,110.91,29.4119Zm-4.5811-10.9768c-.6721-.513-1.2094-1.3071-2.0585-1.5333a19.2431,19.2431,0,0,0-2.9381.5254c.0976,1.0934.2075,2.1929.3175,3.2924a24.4876,24.4876,0,0,0,2.5106.03A20.4765,20.4765,0,0,0,106.3286,18.4351Zm1.2827,12.95-.2078-.5068-.5068-.208-.5071.208-.2137.5068.2137.5069.5071.2137.5068-.2137Zm-.3239-2.077c-.0243-1.0812-.0365-2.1561-.0365-3.2373h-.8184c-.0062,1.0751-.0184,2.1561-.0307,3.2314C106.6217,29.302,107.0676,29.3079,107.2874,29.3079Zm2.6878-4.7337a5.8507,5.8507,0,0,0-2.376-1.2647c-.1774-1.466-.3239-2.9318-.5011-4.3917-.5376,1.3314-1.1362,2.773-.6535,4.2209A8.7846,8.7846,0,0,0,109.9752,24.5742Zm.3848-8.0266c-.788,1.7288-.2016,3.69-.2749,5.5219a26.4186,26.4186,0,0,1,3.2987-2.883c-.1834-1.0323-.3849-2.0585-.58-3.0848C111.985,16.23,111.16,16.34,110.36,16.5476Zm.6537-4.5936c-.226,1.124.5131,2.0893.9835,3.042a45.0085,45.0085,0,0,0-.0612-4.5384A9.4933,9.4933,0,0,0,111.0137,11.954ZM109.7982,9.37l.2137.5131.5069.2075.5069-.2075.2079-.5071-.2079-.5068-.5069-.214-.5069.2076Zm-7.4094,4.6361c.5678.5559,1.1054,1.1484,1.7223,1.6555,2.1563.513,4.6484.6779,6.5484-.678a46.2791,46.2791,0,0,0-5.0212-.6721A5.7444,5.7444,0,0,1,102.3888,14.0065Zm-.3119-2.8588c-1.05.2566-.4519,1.8448.5073,1.4357C103.6285,12.3267,103.03,10.7323,102.0769,11.1477ZM101.32,9.37l.2077.5068.5071.2138.5071-.2075.2135-.5071-.2135-.5068-.5071-.214-.5071.214Zm-3.1213,6.3832c.8736.0182,1.747.0244,2.6264.03-.3359-.4215-.6779-.8368-1.032-1.234C99.0047,14.4464,98.6992,15.326,98.1983,15.7536ZM507.38,42.8808a13.8352,13.8352,0,0,1-1.35,2.81c-1.68,2.7794-2.657,5.9008-4.0865,8.8021-1.2154,2.4374-1.8385,5.1068-2.816,7.6356-.33,1.3255-1.8995,1.3132-2.9317,1.7225-.8066-2.1379-1.4112-4.3428-2.0708-6.5238-.66-2.199-1.906-4.2025-2.303-6.4871a27.58,27.58,0,0,0-1.2521-5.6806,19.0728,19.0728,0,0,1-1.6434-4.6484c.3789-2.4374,1.7471-4.5876,2.2724-6.9942.5315-2.0218.9226-4.1781,2.26-5.8581a5.7278,5.7278,0,0,1,4.282-2.62,6.9428,6.9428,0,0,1,6.0715,3.94c1.2524,2.7427,1.2951,5.8275,1.9855,8.729C506.1645,39.4784,506.9953,41.11,507.38,42.8808ZM496.3789,42.24c-.1956.6963-.3849,1.3926-.5619,2.089,1.5209-.0185,3.0418-.0122,4.5751.0062a26.2987,26.2987,0,0,0-1.6187-3.1764C497.9793,41.537,497.173,41.8851,496.3789,42.24Zm-1.747-.5132-.2137-.3786c1.0262-1.008,2.2477-1.9793,2.657-3.4329A11.0793,11.0793,0,0,0,497.1,33.01c-1.6434,1.4966-2.9811,3.3106-4.7524,4.66a9.2507,9.2507,0,0,0-2.2052,1.8327c-.33.8734.5009,1.5453,1.1912,1.9057A26.9336,26.9336,0,0,0,494.6319,41.7263Zm5.4853,4.9418a43.9078,43.9078,0,0,0-4.6608.0121c-1.3621,5.3021-.116,10.8058.99,16.0407.4522-.0735,1.3622-.2077,1.82-.2749.5986-3.1155,1.6127-6.133,2.2052-9.248A16.1341,16.1341,0,0,0,500.1172,46.6681Zm5.9008-3.5613a8.6862,8.6862,0,0,0-2.7244-5.1555,15.1958,15.1958,0,0,0-2.8345-4.905,17.0821,17.0821,0,0,0-.8245,5.8885c.0977.226.2932.6841.391.9162l.2444.4459a6.7535,6.7535,0,0,0,2.5959,2.4984A13.557,13.557,0,0,0,506.018,43.1068Zm-308.693,215.32c-.6354-.33-1.2766-.6288-1.918-.9223a104.7393,104.7393,0,0,1-13.9881-.0732l.1221.4458c2.4983.4277,4.9782.91,7.4766,1.3438,2.089.4216,4.2025.7638,6.2732,1.3134,2.04.3849,2.8343,2.5411,3.879,4.0742,2.1377,3.1215,4.233,6.2795,6.6213,9.2177-1.0994-3.0909-2.5715-6.029-3.7138-9.1015C200.5992,262.5746,199.5852,259.8807,197.325,258.4269ZM50.7238,266.5206c-1.4353.7637-2.8827,2.0157-3.1032,3.72a9.86,9.86,0,0,0,.1837,3.9887,6.6555,6.6555,0,0,0,3.5794,3.1642,11.4658,11.4658,0,0,0,3.47-.2384c-.91-3.4939-1.5211-7.159-3.1945-10.3842C51.4205,266.71,50.956,266.5817,50.7238,266.5206Zm4.4227-.3482c-.9773.0673-1.9485.1466-2.9258.2383a80.4309,80.4309,0,0,0,3.2312,10.5431c.6844-.3726,1.3622-.7393,2.04-1.1055.7757-1.7287,1.5819-3.6223,1.1361-5.5526C58.2433,268.4324,56.6,267.2292,55.1465,266.1724Zm58.42,11.6c2.7916.4521,6.0473-1.5516,6.1328-4.5387.0612-1.698.2626-3.775-1.179-5.0027a6.0406,6.0406,0,0,0-9.4862,1.075,8.8682,8.8682,0,0,0-.3911,3.9215C108.6987,275.7384,111.1541,277.7111,113.567,277.7724Zm60.2286-10.8914a14.7787,14.7787,0,0,0-4.001,2.6571,35.9592,35.9592,0,0,0,.4031,4.6546,14.4506,14.4506,0,0,0,1.7958,3.4758,26.09,26.09,0,0,0,4.4042.464c2.1012-.4459,4.1905-2.089,4.4225-4.3429a6.7225,6.7225,0,0,0-.8429-4.71A5.8,5.8,0,0,0,173.7956,266.881Zm-1.71-8.71c-1.4234-.0795-2.8465-.165-4.27-.2382-11.99-.3114-23.9935-.0673-35.9843-.171-.8371.006-1.6738.0305-2.5043.067-8.3015.3544-16.615.0245-24.9224.159-4.8928.1222-9.7734-.391-14.6661-.33-5.6931.0244-11.3859.0122-17.079.0672-10.14-.0123-20.31-.5864-30.4319.2627-2.364.3482-4.7156.7268-7.08,1.0322-3.9273,1.3684-7.9408,2.7-11.3616,5.1372a48.05,48.05,0,0,0-6.499,6.7376,13.8371,13.8371,0,0,0-2.37,5.6014,36.4158,36.4158,0,0,0,2.67-2.5657,27.8937,27.8937,0,0,1,8.4049-7.3176,38.62,38.62,0,0,1,15.3932-5.2655,55.36,55.36,0,0,1,9.8835-.9285c15.43.0612,30.8593-.0367,46.283-.11,10.7754-.0977,21.5505-.0122,32.3257-.2259.3725-.0062,1.1238-.0245,1.5025-.0368,12.5344.0061,25.0628-.1771,37.5972-.4274,1.0322-.0184,2.0707-.0307,3.1152-.0427C172.0913,259.2272,172.0913,258.5249,172.0853,258.1705Zm-51.787,32.8263c-5.0394.0795-10.0787.2322-15.1182.0855a106.4274,106.4274,0,0,0-10.72.1712,69.6348,69.6348,0,0,0,11.9478,2.2113,84.7267,84.7267,0,0,0,16.8348-.3177,86.7434,86.7434,0,0,0,13.09-3.1642C130.9515,289.641,125.6676,290.9786,120.2983,290.9968ZM29.302,300.3123a58.312,58.312,0,0,1-5.577-2.5779c-.9592-.4764-1.9245-.9222-2.8955-1.3681,1.0813,1.4049,2.1808,2.7915,3.2559,4.2024,2.1315,1.2462,4.3062,2.4252,6.4994,3.5614,3.0113.2991,6.0408.8123,9.0768.4823,3.2372-.3116,6.2245-1.6917,9.34-2.5106.1712-.5313.3423-1.05.4951-1.5758A31.2386,31.2386,0,0,1,29.302,300.3123ZM385.39,46.6069a43.98,43.98,0,0,1-2.8221-3.9887,19.5975,19.5975,0,0,1-4.27,6.5726c3.3534,5.76,7.4522,11.0377,11.2515,16.5049a50.8752,50.8752,0,0,0,8.4907,9.2234,29.9621,29.9621,0,0,0,9.3824,5.26,14.36,14.36,0,0,0,4.4594.8245c-1.0385-2.5656-2.9383-4.6-4.7037-6.67C399.8543,65.14,392.72,55.7939,385.39,46.6069Z"/></g></g></svg>