<?xml version="1.0" encoding="UTF-8"?>
<svg id="Layer" xmlns="http://www.w3.org/2000/svg" viewBox="0 0 448.3 514.7">
  <defs>
    <style>
      .cls-1 {
        stroke-width: 0px;
      }
    </style>
  </defs>
  <path class="cls-1" d="m312.74,0c2.96,1.75,8.08.81,9.3,4.9.55,2.58-3.3,3.53-4.72,1.78-1.31-2.07-1.58-5.55-4.81-5.03.76.86,1.52,1.74,2.39,2.51-4.47,2.97-2.12,8.65-.98,12.84,1.97,4.42,1.33,9.41,3.11,13.89-.06,3.37-3.12,7.28-.59,10.46,1.47,1.17-1.3,3.45,1.22,4.17,8.04,4.17,14.2,10.74,20.43,17.14,1.85-2.53,3.9-5.14,6.72-6.63,2.35-.21,4.71.14,7.04.54-.39,3.45-3.91,1.01-5.91,1.91-2.57,2.38-4.49,5.43-6.13,8.5.61,1.07,1.47,1.98,2.4,2.78.54-1.32.69-2.87,1.62-4,1.01.37,1.97.84,2.98,1.22.25-1.5.8-3.02,2.45-3.42-.52,3.32,2.6,2.26,4.78,2.62,1.66,1.04,2.92,2.57,4.45,3.78,1.3-.73,2.48-1.64,3.74-2.44-.58,4.2-5.59,4.74-8.24,7.33,1.21.59,4.54.48,2.62,2.37-.47,2.36,2.26,4.5,3.74,6.2,1.81-.03,3.6-.32,5.42-.39-3.93,3.45-5.96,8.21-8.54,12.66-.77,3.95.8,8.07,3.08,11.25,1.89-.52,3.72-1.24,5.6-1.82-1.63.92-3.34,1.69-4.97,2.59-.12,2.68.92,5.65,3.16,7.26.17-1.03.36-2.05.55-3.08,1.82.89,1.5,3.02,1.96,4.68,1.54,2.27,3.77,4.06,5,6.55-2.36,4.98-2.96,11.1-8.21,14.12-4.31,4.35-8.16-4.07-12.8-1.64-1.63.54-1.47,2.58-1.68,3.95,1.75-.19,3.47-.58,5.21-.9-1.04,3.35-1.7,6.81-2.93,10.1,1.06,1.31,2.4,2.36,3.66,3.47-4.31-3.86-10.01-3.62-15.4-3.83-.21-2.95.23-5.88.57-8.8-2.53,1.04-3.99.69-3.28-2.35-1.93.41-4.16,1.48-4.66,3.56.05,1.89.79,3.68,1.19,5.51-2.68-.25-5.11-1.55-7.74-1.98-3.61.82-6.44,4.78-4.92,8.44-1.09-.38-2.55-2.01-3.23-.26-3.09,4.81-7.11,8.86-11.57,12.4,1.14-.48,2.25-1.01,3.41-1.43-.04,2,.67,4.43-.68,6.11-2.11.96-1.72-2.29-2.26-3.51-.98.34-1.95.81-2.63,1.61,1.48,2,3.48,3.81,3.87,6.42,1.01,2.94-1.5,5.55-1.37,8.44,1.45,5.46,5.89,9.33,9.24,13.66-5.08-4.01-7.95-9.88-11.42-15.16-2.5-.96-5.61,1.18-8.07-.57-.19-1.08-.27-2.18-.42-3.26-1.56,1.23-3.18,2.25-5.25,1.94-2.01,1.26-4.09,2.98-4.78,5.33,3.79,4.23,8.93,6.8,13.46,10.09-1.21.3-2.45.73-3.71.57-1.81-5.05-7.19-8.07-11.88-9.97-5.27,2.95-8.3,8.64-13.73,11.32-2.51,1.38-4.24,3.73-6.42,5.53-3.35,2.56-7.63,4.15-10,7.81,1.63.76,4.37.13,5.1,2.13-3.25,1.53-5.38,4.32-7.44,7.14-2.54,2.71-5.62-.53-8.09-1.59-4.52.76-6,5.93-10.32,6.92-2.68,1.08-4.64,3.3-6.75,5.17-2.63,2.58-6.78,2.92-9.12,5.9,1.78.74,4.8.62,5,3.14-.44,2.34-1.96,4.36-3.68,5.94-1.38-2.14-2.17-4.55-2.25-7.08-2.66-1.05-4.9,2.23-7.42,2.87-6.12-5.33-9.78-13.23-16.55-17.77-4.57,3.31-9.23,6.52-14.44,8.81-5.74,3.51-10.95,8.43-14.05,14.46,4.3-.35,7.58-3.27,11.25-5.14,2.8-.78,3.39,3.04,2.32,4.93-2.16.5-4.12-.81-6.16-1.3-3.03,1.42-5.44,4.67-9.14,4.18.13-4.67,4.49-7.62,7.25-10.9,5.78-6.89,15.06-9.42,21.28-15.58-4.45.77-8.26,3.34-12.2,5.36-3.8,2.19-8.92,3.58-9.74,8.57-6.58-.98-11.49,4-15.4,8.59-1.66,2.36-4.4-.13-5.82-1.54.47-1.48,1.25-2.85,2.27-4.01,1.97-.05,3.8.85,5.73,1.15,2.53-1.29,4.34-3.57,6.64-5.21,7.25-5.04,15.94-7.46,23.28-12.35,1.76-1,3.79-1.35,5.69-1.98-1.31-3.54-4.33-6.15-6.6-9.09-3.27-4.2-9.35-3.02-13.83-1.95-.96,1.78-1.67,3.68-2.48,5.53.44-1.79.88-3.57,1.18-5.39-4.34-.28-8.04,2.35-11.67,4.32-2.37.84.54,3.9-1.44,5.1-4.03-.93-8.1-1.7-12.18-2.45.69-1.07,1.38-2.14,2.03-3.23-3.3-.93-6.8-2.25-8.44-5.53-4.42-6.72,1.2-16.42,8.87-17.08,2.95-.61,8.88,2.88,7.79-2.39-3.11-2.42-5.11-5.87-7.96-8.53-2.32-2.11-2.47-6.17-5.78-7.19-1.56-1.18-3.6,2.22-4.31-.24-.57-2.72-3.1-2.78-4.8-.99-1.5-4.96-4.41-9.4-5.12-14.6-1.04-1.68-2.26.84-3.36,1.31-3.02,3.16-9.25,2.6-11.26-1.36.39-1.49,1.06-2.9,1.63-4.32-1.75,1.48-3.5,2.98-5.39,4.3,1.26-8.18,10.63-9.21,14.58-15.35-1.08,1.9-2.91,3.94-1.73,6.23,1.69,3.31-1.51,5.96-3.48,8.22-.34-.93-.62-1.88-.97-2.8-2.86.33-2.93,3.53-1.57,5.47,4.78,2.72,10.47-1.46,11.94-6.07.76-3.02-2.14-4.79-3.85-6.73.54-2.8,3.6-2.28,5.73-2.65,2.11-1.53,3.8-3.55,5.69-5.32-2.8.16-5.7.56-8.41-.38-.38-2.89-.29-5.81-.59-8.71-3.15,3.03-10.06,1.65-10.83,6.61-4.03.66-6.9-2.8-9.08-5.65,1.45-.52,2.95-.91,4.39-1.47,1.44-2.9-2.19-4.14-3.89-5.74,1.82.66,3.64,1.47,5.59,1.67,1.8-1.95,3.59-4.15,6.39-4.58-.04.84-.09,1.7-.16,2.55,1.7-1.86,3.88-3.12,6.14-4.17-1.29-4.68-4.78-8.53-3.97-13.66-3.14,1.12-7.25,1.76-9.33-1.59-.69-4.34,4.41-5,6.31-7.38-.76-9.62-2.02-19.43.17-29,2.71-17.62,15.02-33.43,31.59-40.07,18.38-7.39,40.54-6.65,57.46,4.12,6.67,4.2,11.15,10.84,15.95,16.9.74,1.31,4.08-2.58,2.64.1-1.83,2.25-.61,6.02,2.55,5.87,3.29.02-1.81,2.1,0,3.59,1.44.81,3.06,1.23,4.52,2.01-.87,2.56-1.8,5.24-.75,7.92,2.57-1.37,5.12-2.81,7.48-4.52.34-6.03-1.99-11.68-3.96-17.24,4.01,2.46,4.71,7.46,7.64,10.81,2.24.5,3.93-1.31,4.98-3.03-.85-.64-1.74-1.22-2.61-1.81,5.84,1.7,9.3-4.35,13.98-6.63,3.2-1.37,2.58-5.17,2.45-7.96.27,1.75.48,3.51.92,5.23,4.25-1.01,8.33-2.69,12.68-3.38,1.52-.12,2.54-1.29,3.62-2.22,4.08,1.51,8.52,1.33,12.76.63.79-1.49.57-3.89,2.51-4.46,2.76-1.15,5.23,1.12,7.12,2.86-1.19.96-2.47,1.81-3.68,2.74,2.93.73,5.88,1.62,8.93,1.7,3.42-2.37,4.08-7.81,8.64-8.93-1.59,3.68-5.94,5.25-7.26,9.14,1.49,1.21,3.23,2.14,5.09,2.67,1.61-1.46,5.42-7.21.96-5.98,1.4-2.09,3.31-4.14,3.13-6.85.33-3.36-2.25-5.77-3.8-8.43,2.3-6.51-1.6-12.94-.49-19.52.13-.82.6-1.38,1.41-1.67Zm39.6,67.35c-.04.6-.12,1.81-.16,2.41,3.35.95,3.89-4.67.16-2.41Zm-2.86,2.66-1.05,51.49c-1.33.91.14,3.25,1.48,2.19,1.35-.9-.14-3.26-1.48-2.19Zm-224.16,1.46c-1.94,1.79-4.36,1.41-6.72.98-1.03,1.88-1.78,4.1-3.83,5.14-1.46-.27-1.79-2.02-2.61-3.01-.88,2.25-1.46,4.61-1.83,7,6.12-1.99,11.28-7.14,17.96-6.94-.85-1.13-1.16-4.73-2.97-3.18Zm225.98,2.25-237.22.75,226.28,11.19-181.3,51.11c-2.43.11-3.9,1.87-4,4.23,1.67.84,3.39,1.72,3.28,3.89.07,3.23,2.91,4.92,5.17,6.67-3.93,2.61-7.65,5.76-9.55,10.23,5.89.95,9.37-5.45,15.05-5.27,4.22-.28,8.44-.42,12.66-.75-.96-.99-4.89-1.64-2.5-3.1-3.04-.21-3.25-3.34-4.06-5.64-1.3,1.46-2.48,3.07-4.11,4.22-.78-1.41-1.41-2.9-2.24-4.27-2.07.66-4.33,3.92-6.35,1.62-2.14-1.95,1.01-3.96,1.71-5.86.84-3.26-.83-8.18-5.07-5.97Zm10.94,7.39c-1.04,1.34,1.26,2.86,2.15,1.46,1.09-1.36-1.26-2.86-2.15-1.46Z"/>
  <path class="cls-1" d="m300.51,12.1c1.85-2.1,1.59,2.28,2.34,3.45,2.11,3.98-5.2,4.71-6.2,1.25,1-1.78,2.33-3.36,3.87-4.69Z"/>
  <path class="cls-1" d="m89.34,12.74c2.48-1.3,2.2,1.15,2.03,2.93-1.95.19-4.68-1.48-2.03-2.93Z"/>
  <path class="cls-1" d="m74.51,20.65c1.58-.62,3.4-.87,4.97-.05.81,2.28.53,5.53-2.47,5.76-2.06-1.15-3.01-3.45-2.5-5.72Z"/>
  <path class="cls-1" d="m210.66,21.67c2.64,3.55,6.53,1.19,10.04.84.36,2.97-1.66,6.3-5.01,5.35-1.84-1.92-3.35-4.13-5.02-6.2Z"/>
  <path class="cls-1" d="m91.36,23c.43-.17,1.28-.52,1.71-.71-.16,3.54-1.57,7.19-.24,10.64,1.81,4.43.89,9.27,1.6,13.88.95,6.48.04,13.05.91,19.55,1.68,11.52-5.97,21.31-9.55,31.67-.9,5.41-1.13,10.93-2.17,16.31-1.41,2.69-4.63,4.59-4.39,7.96.43,6.58-2.26,12.74-2.6,19.25-.24,4.67-2.35,8.9-3.77,13.27-2.25,6.57-2.96,13.52-4.67,20.23-.74,2.81-3.18,5.17-2.73,8.25.49,5.56-.9,11.09-2.69,16.31-1.13,3.71-4.67,5.74-6.81,8.78-2.35,3.46-1.82,8.1-4.49,11.4-1.11-1.15-2.01-5.87-3.57-2.88-2.1,4.9-3.84,9.98-6.43,14.67-2.19,3.74-2.77,8.29-5.55,11.69-.56-8.76,5.14-16.23,5.62-24.83.22-2.88.93-5.68,1.48-8.51.71-3.3-1.03-6.52-.64-9.82.44-3.65,1.91-7.15,1.87-10.86-3.43-3.49-1.26-8.19-.57-12.31,1.48-7.45,2.13-15.06,4.23-22.38,1.15-3.26.07-6.53-.72-9.72-.12-4.01,1.95-7.7,2.14-11.68-.07-2.89-1.2-5.76-.38-8.64,1.5-6.27,1.81-12.77,1.02-19.16-1.21-7.88,4.64-14.25,7.09-21.26,1.53-7.12-2.47-14.55.51-21.46,1.59-4.1.26-8.51.92-12.7,4.47-4.78,8.94-9.61,13.54-14.29,2.88-3.57,8.38-.72,11.15-4.56,1.44-1.91,2.19,1.42,3.24,2.23,1.28-3.55.94-8.55,4.96-10.33Z"/>
  <path class="cls-1" d="m227.81,27.4c1.98-.62,4.18-.64,6.14.04,1.42,1.44,1.72,3.7,3.4,4.96.91,1.08,2.94,1.78,2.49,3.51-.86,3.11-4.7,3.98-7.52,3.52-1.14-2.51-1.61-5.65-4.69-6.51-3.01-.56-2.37-4.77.18-5.52Z"/>
  <path class="cls-1" d="m347.17,28.23c2.32.78,7.34.27,6.39,3.93-3.12,1.13-5.08-1.52-6.39-3.93Z"/>
  <path class="cls-1" d="m298.06,28.9c1.48-.47,1.99.05,1.49,1.53-1.5.48-2-.04-1.49-1.53Z"/>
  <path class="cls-1" d="m364.37,30.91c1.23-.84,3.94-1.01,2.87,1.2.03,2.67-2.8,2.68-4.72,3,2.17,2.29-1.59,3.19-2.02,5.39-1.57,4.76-8.44,5.46-9.27,10.21-2.13-1.39-4.26-2.77-6.31-4.25-1.61-3.21-.47-8.24,3.56-8.89,2.89-1.09,4.96,1.64,7.19,2.93,4.48-1.56,4.03-7.99,8.71-9.59Z"/>
  <path class="cls-1" d="m300.82,36.43c1.81-.14,3.63.05,5.43.27-1.71.1-5.56,2.64-5.43-.27Z"/>
  <path class="cls-1" d="m362.25,40.62c1.7-.56,2.51,2.31.75,2.7-1.72.56-2.49-2.29-.75-2.7Z"/>
  <path class="cls-1" d="m239.55,48.09c.9-1.41,3.23.15,2.13,1.48-.91,1.39-3.19-.16-2.13-1.48Z"/>
  <path class="cls-1" d="m358.48,50.87c1.73-.55,2.42,2.32.71,2.73-1.71.53-2.45-2.36-.71-2.73Z"/>
  <path class="cls-1" d="m345.65,51.63c2.24-.06,4.78,1.15,5.2,3.55-2.59.33-5.26-.48-5.2-3.55Z"/>
  <path class="cls-1" d="m375.08,52.86c2.58-.06,3.35,3.12,4.47,4.92-2.12-.8-7.28-1.89-4.47-4.92Z"/>
  <path class="cls-1" d="m369.68,55.57c.86-1.22,2.92.27,1.95,1.45-.88,1.19-2.92-.27-1.95-1.45Z"/>
  <path class="cls-1" d="m337.61,56.49c3.27-1.35,2.22,2.22-.18,2.38l.18-2.38Z"/>
  <path class="cls-1" d="m373.03,58.03c1.89.22,2.53,1.75,2.63,3.46-2.09.41-2.07-2.11-2.63-3.46Z"/>
  <path class="cls-1" d="m347.53,60.01c1.48-.48,1.99.03,1.52,1.52-1.5.48-2.01-.03-1.52-1.52Z"/>
  <path class="cls-1" d="m368.02,60.23c1.43-.81,2.93,1.7,1.98,2.83-1.45.71-2.91-1.69-1.98-2.83Z"/>
  <path class="cls-1" d="m396.99,61.02c1.49-.48,2,.03,1.51,1.52-1.5.47-2.01-.04-1.51-1.52Z"/>
  <path class="cls-1" d="m356.62,62.11c2.94.68,5.34,2.61,7.6,4.52-1.83-1.32-3.93-1.94-6.08-.97-2.21,1.05-2.96-2.32-1.52-3.55Z"/>
  <path class="cls-1" d="m393.81,63.35c1.38-1.93,2.62,2.08.77,2.33-6.79,4.13-11.95,10.53-19.24,13.89-2.53.87-3.12,3.91-5.23,5.2-2.87.85-4.84-3.87-1.77-4.74,9.75-3.24,18.21-9.55,25.47-16.68Z"/>
  <path class="cls-1" d="m360.32,74.65c1.49-.47,2,.04,1.51,1.52-1.49.48-2-.03-1.51-1.52Z"/>
  <path class="cls-1" d="m107.01,119.64c1.58.84,3.05,1.94,3.96,3.53-2.04-.27-3.57-1.46-3.96-3.53Z"/>
  <path class="cls-1" d="m100.9,128.8c1.98-.21,2.03,2.1,2.57,3.45-1.79-.29-2.38-1.83-2.57-3.45Z"/>
  <path class="cls-1" d="m103.88,133.56c1.91-.74,2.25,1.76,2.42,3.09-1.99-.35-4.63-.93-2.42-3.09Z"/>
  <path class="cls-1" d="m111.94,141.88c1.11-.85,2.28,1.07,1.2,1.81-1.12.86-2.29-1.08-1.2-1.81Z"/>
  <path class="cls-1" d="m87.58,146.57c2.23-1.2,3.03.08,2.93,2.29,3.3.53,6.64.26,9.96.36-.07,2.36-3.71,0-5.31.4-4.24-1.33-3.89,4.32-6.43,6.19-5.48.49-7.03-8.62-1.15-9.24Z"/>
  <path class="cls-1" d="m324.64,146.57c1.39-.71,2.57,1.71,1.48,2.63-1.41.71-2.58-1.71-1.48-2.63Z"/>
  <path class="cls-1" d="m330.2,148.06c3.84.23,3.08,4.75,4,7.38,2.05,6,4.87,11.73,7.99,17.24-.66.08-1.33.16-1.99.14-1.28-5.12-3.46-9.94-5.65-14.73-1.8.51-4.11,2.9-5.02.06,1.47-1.04,3.03-1.92,4.46-3.01-1.81-.83-3.72-1.46-5.5-2.36-.46-1.81.32-3.56,1.7-4.72Z"/>
  <path class="cls-1" d="m323.78,154.91c.76.34-.61,3.59.9,4.86.5-1.92.94-3.85,1.65-5.69,2.62,1.28,3.03,4.59,3.37,7.19-1.64.23-3.31.28-4.94.56-1.67,1.9-.46,4.62-.67,6.89-1.62,1.54-5.44,1.87-5.9-.85-.22-1.49-2.14-4.15.43-4.35-.44-3.91.69-8.1,5.16-8.6Z"/>
  <path class="cls-1" d="m311.82,160.63c1.66.21,3.22.87,4.62,1.77-1.59-.37-5.1.93-4.62-1.77Z"/>
  <path class="cls-1" d="m326.48,164.49c2.8.41,2.62,3.55,2.16,5.65-2.43-.81-2.18-3.6-2.16-5.65Z"/>
  <path class="cls-1" d="m117.64,170.9c.91-1.41,3.21.17,2.13,1.5-.92,1.39-3.18-.18-2.13-1.5Z"/>
  <path class="cls-1" d="m330.35,170.87c2.62-1.62,6.42,2.04,5.25,4.85-.46,1.24-1.09,4.22-2.74,2.36-1.53-2.24-6.9-5.12-2.51-7.21Z"/>
  <path class="cls-1" d="m343,174.19c1.27-.84.26,2.23.51,2.96.19,2.15-3.08,4.47-4.62,3.9-3.65-3.04,1.75-5.45,4.11-6.86Z"/>
  <path class="cls-1" d="m119.31,176.42c1.48-.49,1.99.02,1.52,1.51-1.49.49-2-.02-1.52-1.51Z"/>
  <path class="cls-1" d="m122.13,176.49c1.49-.48,2,.04,1.51,1.53-1.49.46-2-.05-1.51-1.53Z"/>
  <path class="cls-1" d="m346.83,176.84c3.83-1.65,3.09,4.85.27,4.94-.11-1.48-1.16-3.92-.27-4.94Z"/>
  <path class="cls-1" d="m137.71,178.27c2.07-.62,2.99.26,2.36,2.34-2.03.57-2.97-.29-2.36-2.34Z"/>
  <path class="cls-1" d="m343.41,182.55l.99-.88c-.82,1.86-.57,5.86-3.4,5.44.16-1.8.99-3.45,2.41-4.56Z"/>
  <path class="cls-1" d="m376.9,182.13c1.65.6-.39,3.54-1.74,2.8-.69-1.14.58-2.65,1.74-2.8Z"/>
  <path class="cls-1" d="m289.7,183.73c1.48-.48,1.99.04,1.54,1.53-1.49.47-2.01-.05-1.54-1.53Z"/>
  <path class="cls-1" d="m280.67,188.36c1.55-.59,2.74,2.43,4.07,3.38-1.08-.15-2.15-.34-3.23-.42-1,1.75-.3,3.57.58,5.21-1.69-1.26-3.5-2.31-5.39-3.21.98-1.89,2.42-3.51,3.97-4.96Z"/>
  <path class="cls-1" d="m304.54,190.31c1.55,1.75,3.57,2.94,5.6,4.04-.93,2.64-3.02,4.61-5.02,6.46-.11-3.5,1.42-7.3-.58-10.5Z"/>
  <path class="cls-1" d="m333.68,190.81c1.71,4.33,2.47,8.97,4.06,13.35-3.14-3.66-3.36-8.8-4.06-13.35Z"/>
  <path class="cls-1" d="m110.06,196.38c2.19.1,4.34.8,5.36,2.9-2.19-.07-4.26-.92-5.36-2.9Z"/>
  <path class="cls-1" d="m166.2,202.33c.89-1.08,2.25,3.01.18,2.61-2.03,1.57-1.65-2.22-.18-2.61Z"/>
  <path class="cls-1" d="m291.56,204.84c1.71-.51,2.41,2.33.71,2.74-1.72.53-2.47-2.38-.71-2.74Z"/>
  <path class="cls-1" d="m329.19,207.47c2.4,1.69,6.09,2.38,7.12,5.44-3.06-.71-4.89-3.48-7.12-5.44Z"/>
  <path class="cls-1" d="m349.74,209.63c1.8-.49,3.62.88,2.75,2.79-1.56,1.19-3.34,2.07-5.08,2.97.68-1.96,1.37-3.92,2.33-5.76Z"/>
  <path class="cls-1" d="m131.7,214.44c2.4-1.7,5.87-.92,6.27,2.27-3.02,4.12-7.84,4.43-12.52,4.13,1.9-2.3,3.89-4.57,6.25-6.41Z"/>
  <path class="cls-1" d="m238.45,221.34c2.28.27,4.32,1.7,4.28,4.19-2.69.21-5.13-1.19-4.28-4.19Z"/>
  <path class="cls-1" d="m109.2,227.81c1.84-.03,1.95,2.11,2.53,3.4-1.83-.24-2.38-1.77-2.53-3.4Z"/>
  <path class="cls-1" d="m156.08,232.56c1.07.02,2.13.27,3.17.51-1.02,1.25-2.15,2.4-3.4,3.43-.06-1.2-1.32-3.33.23-3.94Z"/>
  <path class="cls-1" d="m221.99,232.66c1.69-.99,2.69,2.57.82,2.75-1.24-.13-1.74-1.97-.82-2.75Z"/>
  <path class="cls-1" d="m197.47,238.67c3.82-.26,3.31,4.53,1.51,6.59-.58-2.18-1.08-4.38-1.51-6.59Z"/>
  <path class="cls-1" d="m204.72,240.5c1.37,1.7,1.69,4.04-.93,4.6.21-1.56.51-3.1.93-4.6Z"/>
  <path class="cls-1" d="m93.61,258.33c1.09-.87,2.29,1.03,1.21,1.78-1.09.86-2.32-1.04-1.21-1.78Z"/>
  <path class="cls-1" d="m84.48,261.75c2.53-.78,4.45,2.16,2.31,3.89-2.28,1.05-2.55-2.38-2.31-3.89Z"/>
  <path class="cls-1" d="m94.72,264.78l.52-.51c-.85,5.14-2,10.31-1.37,15.56.82,8.57-2.08,17.03-1.11,25.61,2.84-.7,2.52-4.59,4.27-6.53,7.51-8.71,19.05-12.18,29.14-16.37,3.85.73,7.91,1.38,11.03,3.95,1.75,1.48,4.11,1.52,6.23,2.04,0,2.03-.82,4.25.46,6.09,11-4.22,22.09-8.96,33.99-9.84,5.2-.38,10.28-2.17,15.54-1.55,9.39.67,17.46,5.9,24.74,11.4,11.8-4.76,23.87-9.54,36.76-10.12,18.2-5.22,38.22,6.04,46.07,22.6,3.82-1.7,4.49-6.09,6.76-9.13,6.86-7.07,16.22-11.04,25.43-14.01,4.62-1.92,10.05-.49,13.88,2.53,1.76,1.47,4.11,1.5,6.24,2.02.04,2.03-.97,4.33.46,6.09,10.63-3.79,21.06-8.74,32.48-9.64,5.7-.33,11.26-2.39,17.02-1.71,10.69,1.13,20.55,6.77,27.46,14.94,5.26,4.58,7.6,11.99,6.77,18.8-2.18,7.52-6.78,14.2-11.8,20.12-6.16,5.52-12.02,11.73-19.73,15.09-1.26.74-3.06,1.05-3.58,2.6,3.77,3.36,8.15,5.95,11.91,9.31,3.35,3.1,4.64,8.48,9.46,9.79,5,1.43,9.43,5.17,10.84,10.3.49,2.86,6.06,4.94,2.09,7.51,3.84,4.21,7.91,8.22,11.59,12.58-6.12-3.51-10.1-9.97-16.89-12.4-3.75-1.36-6.75-4.12-10.39-5.65-5.3-1.6-8.56-6.46-13.13-9.29-3.19-2.85-8.07-2.27-11.09-5.36-3.7-3.41-8.01-6.04-11.95-9.14-2.25-1.59-4.9-3.63-7.83-2.83-1.57,1.7-2.7,3.75-3.61,5.87-1.79,4.12.94,8.73-.9,12.85-1.32,4.66-6.08,7.16-7.31,11.85-.22,2.57-3.46,1.25-4.31,3.19-2.52,4.69-5.33,9.22-7.87,13.9,1.48-5.73,5.01-10.8,5.91-16.67-.23-6.89.07-13.79-.08-20.7.44-6.2,4.78-11.51,4.47-17.83-1.53.42-2.23,1.84-2.91,3.13-5.57,10.93-14.36,20.53-25.59,25.73-4.43,2.1-8.84,5.33-14,4.71-8.9-1.22-17.36-6.6-21.44-14.74-4.23-7.63-4.94-16.55-4.38-25.09-.88,1.59-1.71,3.21-2.66,4.76.45-6.92,2.53-13.61,3.28-20.49-7.63,10.31-17.7,19.1-29.54,24.23,3.99,3.53,8.62,6.27,12.57,9.85,3.34,3.09,4.6,8.52,9.48,9.74,4.94,1.36,9.52,5.18,10.6,10.35.54,2.96,6.32,4.67,2.26,7.37,3.82,4.27,7.85,8.37,11.69,12.64-6.18-3.46-10.18-9.92-16.96-12.38-3.73-1.41-6.75-4.13-10.42-5.66-5.3-1.54-8.46-6.48-13.06-9.22-3.29-2.69-8.07-2.37-11.13-5.41-3.68-3.45-8.02-6.01-11.96-9.11-2.25-1.61-4.87-3.6-7.81-2.92-1.76,1.89-3.03,4.21-3.9,6.64-1.07,3.67.8,7.55-.42,11.22-1.31,6.15-8.16,9.3-8.45,15.88,3.03,3.88,6.71,7.2,9.86,10.99-4.81-2.92-8.54-7.19-12.97-10.6-3.07,4.3-5.57,8.96-8.1,13.59,1.14-5.18,4.77-9.75,5-15.06-4.91-2.16-9.24-5.43-14.29-7.26-3.88-2.67-7.09-6.23-11.1-8.75-2.91-2.06-6.92-1.74-9.58-4.23-4.04-3.68-8.68-6.6-13-9.92-2.09-1.46-4.57-3.15-7.26-2.47-3.44,3.71-5.13,8.8-3.91,13.8,1.21,7.32-6.4,11.14-8.18,17.46-.4,2.06-3.44.55-4.03,2.51-2.51,4.71-5.33,9.24-7.89,13.92,1.65-6.85,6.88-12.85,5.92-20.2-.39-5.26.24-10.53-.07-15.79-.33-6.8,4.95-12.48,4.42-19.3-3.43,2.73-4.62,7.28-7.34,10.63-7.16,10.97-18.6,18.23-30.66,22.72-6.13,1.34-12.27-1.5-17.39-4.65-9.28-6.49-12.9-18.21-13.17-29.07-2.38.16-4.8.55-7.01,1.5-1.88,2.79-2.37,6.2-3.68,9.26-1.34,3.37-4.8,5.52-5.59,9.17-1.1,3.81.4,7.88-.97,11.64-1.25,3.44-2.14,7.19-4.7,9.94-2.48,2.57-3.07,6.18-4.35,9.38-.93-.79-1.79-1.65-2.7-2.45-2.74,6.38-5.43,12.8-7.78,19.33-.27.16-.81.47-1.07.61.92-8.67,5.26-16.75,4.69-25.64-.57-5.21,2.03-10.53-.43-15.45,1.92-8.62,6.29-16.7,7.25-25.51-7.06-.28-14.07-1.16-21.14-.62-1.82,4.44-2.85,9.18-4.91,13.53-1.25,2.57-3.68,4.35-4.88,6.96-1.6,4.05.16,8.51-1.17,12.62-1.04,3.34-1.69,7.01-4.16,9.65-2.34,2.26-2.51,5.62-3.29,8.58-.91-.39-1.81-.82-2.73-1.16-3.23,5.55-6.05,11.51-10.42,16.29.88-4.27,3.58-7.77,5.33-11.68,2.31-5.8-.35-11.97.87-17.9.82-3.85-1.16-7.74.17-11.52,2.5-9.62,6.36-18.91,6.67-28.98-1.43-.68-3.01-1.04-4.39-1.8-.52-1.22.16-3.07-1.32-3.69-4.04-2.65-9.36-2.7-13.1-5.77,2.58.12,5.15.3,7.73.22,2.94-.55,4.49,3.84,7.54,2.07-.21-2.28-.6-4.59-1.5-6.7-1.64-1.13-3.38-2.1-4.99-3.26,5.44-.07,11.34,1.42,16.38-1.31,1.7-5.53,3.63-11.03,4.59-16.75.86-6.27,7.34-9.2,10.03-14.55,1.36-3.43,5.49-2.68,7.93-4.8,1.15-1.39,1.81.73,2.71,1.32,1.34-2.31,1.74-5.62,4.39-6.83-.87,6.67-3.21,13.23-2.47,20.04,1,9.74-8.85,16.65-8.11,26.4,3.98-.17,7.59-2.84,11.65-1.73,3.17.8,6.48-.12,8.95-2.22.98-6,1.04-12.15,2.79-18.04,1.22-3.06-2.14-5.64-1.26-8.65,1.24-2.57,4.84-3.75,4.78-6.97.49-5.59.93-11.21,1.96-16.73,2.36-3.04,5.57-5.36,8.37-8.01,3.02-1.48,6.64-1.92,9.98-1.38,1.11-1.74,1.69-3.85,3.29-5.22Zm284.06,26.3-226.04,2.22c-2.69.99-7.78.88-7.18,4.87,1.05,3.44-5.24.65-4.12,3.67,1.18,3.09,5.11,1.77,7.63,2.09.23,1.84-.17,3.89.99,5.49,2.68,4,4.15,8.8,4.01,13.61-.68,3.57,4.24,2.57,6.18,4.24,1.69-7.27,2.5-14.76,4.78-21.88,2.4-4.48,7.67-6.02,12.34-6.86.07-.34.24-1.02.32-1.36-3.86.13-7.67-.27-11.21-1.9-3.67-.03-7.29,1.27-10.99.87.91-2.34-.34-3.86-2.77-2.85Zm74.16-.04c-2.64.55-5.19,1.57-7.48,2.98,2.03,3.33,5.76,5.56,6.75,9.51,1.24,4.5,2.38,9.46.6,13.98-2.3,6.64-7.15,11.89-10.55,17.93,2.39.38,4.84.66,7.26.33.76-3.54,4.98-6.3,3.09-10.05,1.22.47,2.42,1.01,3.68,1.42-.12-3.02-1.43-5.77-2.54-8.52,2.16,2.2,3.47,5.86,6.71,6.59,1.83-7.49,2.33-15.37,5.07-22.63,2.77-3.98,7.6-5.52,12.16-6.26.06-.34.19-1.02.26-1.37-3.89.13-7.74-.2-11.27-1.96-3.64-.05-7.2,1.32-10.89.96.93-2.4-.38-3.85-2.84-2.91Zm135.56,0c-2.68.89-7.47,1.01-6.98,4.89.46,2.58-2.69,1.76-4.27,2.41-.24,4.19,5.08,3.31,7.82,3.36.14,2.08-.16,4.35,1.26,6.09,2.95,4.19,3.39,9.39,3.79,14.33-.02,1.26,1.41,1.21,2.29,1.48,1.43.07,2.7,1.72,4.13,1.04,1.03-7.22,2.24-14.45,4.36-21.45,2.52-4.43,7.67-6.11,12.41-6.87.07-.34.24-1.02.31-1.36-3.01-.15-6.06-.04-8.97-.92-4.34-1.45-8.86-.03-13.29.05.33-.96.71-1.92,1.04-2.88-1.26-.42-2.61-.5-3.9-.17Zm-175.01,3.72c-3.63,2.73.71,8.11-.82,11.8-2.25,4.18-4.9,8.2-6.36,12.76-.79,2.69-.53,5.71-2.05,8.18-1.23,2.45-3.5,4.93-2.38,7.87,7.19.88,15.32-.93,20.58-6.2,3.36-2.8,8.42-3.53,10.64-7.63,2.11-3.67,4.53-7.95,3.23-12.32-1.63-5.27-4.71-10.32-9.41-13.37-3.82-3.02-9-1.51-13.41-1.08Zm74.24,0c-3.35,2.5.09,7.56-.64,11.09-2.71,5.69-6.83,11.03-7.35,17.52-.11,4.37-4.68,7.25-4.21,11.75,7.3,1.52,15.71-.67,21.03-6.02,3.4-2.78,8.53-3.42,10.73-7.58,2.01-3.62,4.54-7.78,3.2-12.05-1.64-5.33-4.59-10.54-9.38-13.61-3.81-3.02-8.98-1.51-13.38-1.1Zm142.91-.6c-2.77.21-5.57.38-8.22,1.2-1.81,3.79,1.87,7.96-.23,11.66-2.67,5.24-6.31,10.29-6.71,16.34-.16,4.37-4.63,7.26-4.31,11.73,6.09,1.43,12.86-.38,18.17-3.42,4.12-4.7,11.54-5.4,14.32-11.35,2.36-3.91,4.11-8.82,1.83-13.18-2.55-6.06-7.52-13.37-14.86-12.99Zm-56.01,7.22c1.01,3.02,2.14,6.06,2.26,9.29-2.27-1.72-3.68-4.27-5.74-6.2-2.98-.74-6.06-1.18-9.12-1.42-2.56,3.81-4.7,7.92-7.61,11.5-4.37,5.75-10.08,10.87-12.01,18.08-1.48,4.69.11,9.97-2.25,14.43-3.85,6,.63,15.55,7.81,16.31,3.81.84,7.44-1.06,11.07-1.94,7.01-1.23,11.8-8.29,12.46-15.06.53-4.66,3.45-8.51,4.62-12.97.71-2.68,1.65-5.32,3.22-7.63,3.06-4.15,1.15-9.46,1.19-14.16,1.31.44,2.6.96,3.91,1.42-1.61-4.94-4.98-9.54-9.83-11.67Zm-222.49,1.65c-2.68,4.28-5.2,8.68-8.46,12.56-3.91,5-8.77,9.54-10.73,15.76-2.06,5.02-.19,10.81-2.69,15.7-4.11,6.73,1.5,16.8,9.51,16.54,8.51-.79,18.39-4.12,21.12-13.21.93-8.11,5.07-15.28,7.58-22.92,3.66-4.57,2.59-10.42,2.18-15.79,1.31.43,2.59.93,3.9,1.39-1.56-4.79-4.74-9.58-9.75-11.17,1.32,2.72,2.34,5.64,2.09,8.72-2.2-1.74-3.6-4.23-5.63-6.13-2.99-.72-6.07-1.12-9.13-1.44Zm-41.02,25.84c-1.37,2.16-3.23,4.03-4.29,6.39.94.94,1.81,2.47,3.26,2.58.86-3.28,1.18-6.67,1.72-10.01-.17.26-.52.78-.7,1.04Zm128.32,8.04c-5,4.56-9.74,9.67-16.09,12.41-1.56,1.04-4.17,1.19-4.76,3.24,3.61,3.19,7.74,5.74,11.4,8.87,2.85,2.44,4.23,6.09,6.89,8.69,2.26,1.66,5.16,2.12,7.57,3.53,1.67,1.22,2.98,2.91,4.86,3.84.27-3.29-.1-6.58-.09-9.86.49-5.77,4.02-10.81,4.56-16.57-1.54-2.1-4.23-3.59-4.28-6.47.2-3.1-3.33-3.11-5.4-4.19,1.95-.05,3.9-.12,5.86-.31-2.97-1.81-7.17-4.84-10.51-3.17Zm-133.33,2.46c-.49,1.59-2.09,4.84.38,5.28,4.12,2.68,2.89-6.34-.38-5.28Zm4.63,4.82c-.6,1.16-1.02,2.41-1.27,3.7,2.7,1.45,1.6-5.29,1.27-3.7Z"/>
  <path class="cls-1" d="m53.26,280.96c1.64-.56,2.21,2.14.6,2.48-1.63.54-2.21-2.14-.6-2.48Z"/>
  <path class="cls-1" d="m44.45,285c2.89-1.72,2.81,2.6,1.28,3.96-1.43-.6-3.68-3.18-1.28-3.96Z"/>
  <path class="cls-1" d="m2.91,330.53c1.34-1.07,2.9,1.24,1.5,2.14-1.33,1.05-2.89-1.24-1.5-2.14Z"/>
  <path class="cls-1" d="m132.15,336.82c1.48-.48,2,.03,1.52,1.53-1.49.46-2-.05-1.52-1.53Z"/>
  <path class="cls-1" d="m342.02,336.82c1.48-.47,2,.05,1.52,1.54-1.49.45-2.01-.05-1.52-1.54Z"/>
  <path class="cls-1" d="m210.28,345.07c1.68-.21,3.27.27,4.34,1.64-2.03.61-5.58,1.86-4.34-1.64Z"/>
</svg>